<?xml version="1.0" encoding="utf-8"?>
<!-- Generator: Adobe Illustrator 27.5.0, SVG Export Plug-In . SVG Version: 6.00 Build 0)  -->
<svg version="1.1" xmlns="http://www.w3.org/2000/svg" xmlns:xlink="http://www.w3.org/1999/xlink" x="0px" y="0px"
	 viewBox="0 0 500 500" style="enable-background:new 0 0 500 500;" xml:space="preserve">
<g id="Background_Complete">
	<g>
		<ellipse style="fill:#F5F5F5;" cx="236.021" cy="412.847" rx="162.232" ry="41.355"/>
	</g>
	<g>
		<path style="fill:#F5F5F5;" d="M364.564,33.647C351.92,43.53,80.856,405.698,79.694,405.698c-1.163,0,318.56,12.538,318.56,12.538
			l16.203-376.033L364.564,33.647z"/>
	</g>
	<g>
		<g>
			<g>
				<g>
					<g>
						<g>
							<g>
								<path style="fill:#E0E0E0;" d="M167.206,181.025c-0.003-0.003-0.006-0.055-0.01-0.153c-0.003-0.112-0.006-0.254-0.01-0.431
									c-0.006-0.395-0.014-0.946-0.024-1.653c-0.013-1.45-0.031-3.535-0.054-6.163l0.098,0.098
									c-7.25,0.015-18.78,0.037-31.751,0.063c0.072-0.072-0.163,0.161,0.16-0.162v0.002v0.004v0.008v0.017v0.034v0.068l0,0.135
									v0.27v0.538c0,0.359,0,0.716,0,1.072c0,0.712-0.001,1.419-0.001,2.12c-0.001,1.402-0.002,2.781-0.003,4.132l-0.158-0.158
									c9.042,0.029,16.953,0.054,22.628,0.072c2.827,0.019,5.095,0.034,6.679,0.045c0.771,0.009,1.374,0.016,1.806,0.021
									c0.194,0.004,0.35,0.008,0.472,0.01C167.146,181.018,167.203,181.021,167.206,181.025c0.003,0.003-0.046,0.007-0.147,0.01
									c-0.117,0.003-0.267,0.006-0.453,0.01c-0.424,0.005-1.016,0.012-1.772,0.021c-1.576,0.011-3.831,0.026-6.642,0.045
									c-5.702,0.018-13.652,0.043-22.738,0.072l-0.158,0l0-0.159c-0.001-1.351-0.002-2.73-0.003-4.132c0-0.701,0-1.408-0.001-2.12
									c0-0.356,0-0.713,0-1.072l0-0.538v-0.27v-0.135v-0.068v-0.034v-0.017v-0.008v-0.004v-0.002
									c0.324-0.324,0.091-0.09,0.164-0.162c12.97,0.026,24.501,0.049,31.751,0.063l0.099,0l-0.001,0.098
									c-0.023,2.654-0.042,4.758-0.054,6.222c-0.01,0.697-0.018,1.241-0.024,1.631c-0.004,0.17-0.008,0.306-0.01,0.414
									C167.213,180.983,167.209,181.028,167.206,181.025z"/>
							</g>
						</g>
					</g>
				</g>
			</g>
		</g>
		<g>
			<g>
				<g>
					<g>
						<g>
							<g>
								<path style="fill:#E0E0E0;" d="M171.511,172.624c-0.004-0.004-0.008-0.058-0.012-0.16c-0.003-0.121-0.008-0.267-0.012-0.445
									c-0.007-0.413-0.017-0.975-0.029-1.684c-0.015-1.473-0.036-3.553-0.063-6.111l0.116,0.116
									c-4.942,0.012-11.666,0.028-19.077,0.046c-0.145,0.144,0.195-0.197,0.16-0.161v0.002v0.004v0.009v0.017v0.035v0.069l0,0.138
									v0.276l0,0.549c0,0.365,0,0.728-0.001,1.089c0,0.722-0.001,1.435-0.001,2.138c-0.002,1.405-0.004,2.768-0.006,4.073
									l-0.154-0.154c5.507,0.029,10.249,0.055,13.647,0.073c1.676,0.018,3.02,0.032,3.976,0.043
									c0.447,0.008,0.802,0.014,1.072,0.019C171.374,172.612,171.505,172.618,171.511,172.624
									c0.006,0.006-0.112,0.013-0.346,0.019c-0.262,0.005-0.607,0.011-1.04,0.019c-0.948,0.01-2.279,0.025-3.94,0.043
									c-3.424,0.018-8.202,0.043-13.751,0.073l-0.154,0.001l0-0.155c-0.002-1.305-0.004-2.668-0.006-4.073
									c-0.001-0.703-0.001-1.416-0.002-2.138c0-0.361,0-0.724,0-1.089l0-0.549v-0.276v-0.138v-0.069v-0.035v-0.017v-0.009v-0.004
									v-0.002c-0.036,0.034,0.307-0.307,0.163-0.163c7.41,0.018,14.134,0.034,19.077,0.046l0.118,0l-0.001,0.116
									c-0.026,2.588-0.048,4.692-0.063,6.182c-0.012,0.698-0.022,1.251-0.029,1.658
									C171.527,172.44,171.519,172.633,171.511,172.624z"/>
							</g>
						</g>
					</g>
				</g>
			</g>
		</g>
	</g>
	<g>
		<g>
			<g>
				<g>
					<g>
						<g>
							<g>
								<path style="fill:#E0E0E0;" d="M410.578,300.223c-0.003-0.003-0.007-0.055-0.01-0.153c-0.003-0.112-0.006-0.254-0.01-0.431
									c-0.006-0.395-0.014-0.946-0.024-1.653c-0.013-1.45-0.031-3.535-0.054-6.163l0.098,0.098
									c-7.25,0.014-18.78,0.037-31.751,0.063c0.072-0.072-0.163,0.161,0.16-0.162v0.002v0.004v0.008v0.017v0.034v0.068l0,0.135
									v0.27v0.538c0,0.358,0,0.716,0,1.072c0,0.712,0,1.419-0.001,2.12c-0.001,1.402-0.002,2.781-0.003,4.132l-0.158-0.158
									c9.042,0.029,16.953,0.054,22.628,0.072c2.827,0.019,5.095,0.034,6.679,0.045c0.771,0.009,1.374,0.016,1.806,0.021
									c0.195,0.004,0.35,0.008,0.473,0.01C410.518,300.216,410.575,300.22,410.578,300.223c0.004,0.003-0.046,0.007-0.147,0.01
									c-0.117,0.003-0.267,0.006-0.453,0.01c-0.424,0.005-1.016,0.012-1.772,0.021c-1.576,0.011-3.831,0.026-6.642,0.045
									c-5.702,0.018-13.652,0.043-22.738,0.072l-0.158,0l0-0.159c-0.001-1.351-0.002-2.73-0.003-4.132c0-0.701,0-1.408-0.001-2.12
									c0-0.356,0-0.713,0-1.072l0-0.538v-0.27v-0.135v-0.068v-0.034v-0.017v-0.008v-0.004v-0.002
									c0.324-0.324,0.091-0.09,0.164-0.162c12.971,0.026,24.501,0.049,31.751,0.063l0.099,0l-0.001,0.098
									c-0.023,2.654-0.042,4.758-0.054,6.222c-0.01,0.697-0.018,1.241-0.024,1.631c-0.004,0.17-0.008,0.306-0.01,0.414
									C410.585,300.181,410.581,300.227,410.578,300.223z"/>
							</g>
						</g>
					</g>
				</g>
			</g>
		</g>
		<g>
			<g>
				<g>
					<g>
						<g>
							<g>
								<path style="fill:#E0E0E0;" d="M414.883,291.823c-0.004-0.004-0.008-0.058-0.012-0.16c-0.003-0.121-0.008-0.267-0.013-0.445
									c-0.007-0.413-0.017-0.975-0.029-1.684c-0.015-1.473-0.036-3.553-0.063-6.111l0.116,0.116
									c-4.942,0.012-11.666,0.028-19.077,0.046c-0.145,0.145,0.195-0.197,0.161-0.161v0.002v0.004v0.009v0.017v0.035v0.069
									l0,0.138v0.276l0,0.549c0,0.365,0,0.728,0,1.089c0,0.722-0.001,1.435-0.001,2.138c-0.002,1.405-0.004,2.768-0.006,4.073
									l-0.154-0.154c5.508,0.03,10.249,0.055,13.647,0.073c1.676,0.018,3.019,0.032,3.975,0.043
									c0.447,0.008,0.802,0.014,1.072,0.019C414.746,291.81,414.877,291.817,414.883,291.823c0.006,0.006-0.112,0.013-0.346,0.019
									c-0.262,0.005-0.607,0.011-1.04,0.019c-0.948,0.01-2.279,0.025-3.94,0.043c-3.424,0.018-8.202,0.044-13.751,0.073
									l-0.154,0.001l0-0.155c-0.002-1.305-0.004-2.668-0.006-4.073c0-0.703-0.001-1.416-0.001-2.138c0-0.361,0-0.724,0-1.089
									l0-0.549v-0.276v-0.138v-0.069v-0.035v-0.017v-0.009v-0.004v-0.002c-0.035,0.034,0.307-0.307,0.163-0.163
									c7.411,0.018,14.134,0.034,19.077,0.046l0.118,0L415,283.423c-0.026,2.587-0.048,4.692-0.063,6.181
									c-0.012,0.698-0.022,1.251-0.029,1.658C414.899,291.638,414.891,291.831,414.883,291.823z"/>
							</g>
						</g>
					</g>
				</g>
			</g>
		</g>
	</g>
	<g>
		<g>
			<g>
				<g>
					<g>
						<g>
							<g>
								<path style="fill:#E0E0E0;" d="M226.926,356.425c-0.003-0.003-0.007-0.055-0.01-0.153c-0.003-0.113-0.006-0.254-0.01-0.431
									c-0.006-0.395-0.014-0.946-0.024-1.653c-0.013-1.45-0.031-3.535-0.054-6.163l0.098,0.098
									c-7.25,0.014-18.78,0.037-31.751,0.063c0.072-0.072-0.163,0.161,0.16-0.162v0.002v0.004v0.008v0.017v0.034v0.068l0,0.135
									v0.27v0.539c0,0.358,0,0.716,0,1.072c0,0.712,0,1.419-0.001,2.12c-0.001,1.402-0.002,2.781-0.003,4.132l-0.158-0.158
									c9.042,0.029,16.953,0.054,22.628,0.072c2.827,0.019,5.095,0.034,6.679,0.045c0.771,0.009,1.374,0.016,1.806,0.021
									c0.194,0.004,0.35,0.008,0.472,0.01C226.866,356.418,226.923,356.422,226.926,356.425c0.003,0.003-0.046,0.007-0.147,0.01
									c-0.117,0.003-0.267,0.006-0.453,0.01c-0.424,0.005-1.016,0.012-1.772,0.021c-1.576,0.011-3.831,0.026-6.642,0.045
									c-5.702,0.018-13.652,0.043-22.738,0.072l-0.158,0.001l0-0.159c-0.001-1.351-0.002-2.73-0.003-4.132
									c0-0.701,0-1.408-0.001-2.12c0-0.356,0-0.713,0-1.072l0-0.539v-0.27v-0.135v-0.068v-0.034v-0.017v-0.008v-0.004v-0.002
									c0.324-0.324,0.091-0.09,0.164-0.162c12.97,0.026,24.501,0.049,31.751,0.063l0.099,0l-0.001,0.098
									c-0.023,2.654-0.042,4.758-0.054,6.222c-0.01,0.697-0.018,1.241-0.024,1.631c-0.004,0.17-0.008,0.306-0.01,0.414
									C226.933,356.384,226.93,356.429,226.926,356.425z"/>
							</g>
						</g>
					</g>
				</g>
			</g>
		</g>
		<g>
			<g>
				<g>
					<g>
						<g>
							<g>
								<path style="fill:#E0E0E0;" d="M231.232,348.025c-0.004-0.004-0.008-0.058-0.012-0.16c-0.003-0.121-0.008-0.267-0.012-0.445
									c-0.007-0.413-0.017-0.975-0.029-1.684c-0.015-1.473-0.036-3.553-0.063-6.111l0.116,0.116
									c-4.942,0.012-11.666,0.028-19.077,0.046c-0.145,0.145,0.195-0.197,0.161-0.161v0.002v0.005v0.008v0.017v0.035v0.069
									l0,0.138v0.276l0,0.549c0,0.365,0,0.728-0.001,1.089c0,0.722-0.001,1.435-0.001,2.138c-0.002,1.405-0.004,2.768-0.006,4.073
									l-0.154-0.154c5.508,0.03,10.249,0.055,13.647,0.073c1.676,0.018,3.019,0.032,3.975,0.043
									c0.447,0.008,0.802,0.014,1.072,0.019C231.094,348.013,231.225,348.019,231.232,348.025
									c0.006,0.006-0.112,0.013-0.346,0.019c-0.262,0.005-0.607,0.011-1.04,0.019c-0.948,0.01-2.279,0.025-3.94,0.042
									c-3.424,0.018-8.202,0.044-13.751,0.073L212,348.18l0-0.155c-0.002-1.305-0.004-2.668-0.006-4.073
									c-0.001-0.703-0.001-1.416-0.001-2.138c0-0.361,0-0.724,0-1.089l0-0.549V339.9v-0.138v-0.069v-0.035v-0.017v-0.008v-0.005
									v-0.002c-0.035,0.034,0.307-0.307,0.163-0.163c7.411,0.018,14.134,0.034,19.077,0.046l0.118,0l-0.001,0.116
									c-0.026,2.587-0.048,4.692-0.063,6.182c-0.012,0.698-0.022,1.251-0.029,1.658
									C231.248,347.84,231.24,348.033,231.232,348.025z"/>
							</g>
						</g>
					</g>
				</g>
			</g>
		</g>
	</g>
	<g>
		<g>
			<g>
				<g>
					<g>
						<g>
							<g>
								<path style="fill:#E0E0E0;" d="M82.063,236.771c-0.003-0.003-0.007-0.055-0.01-0.153c-0.003-0.112-0.006-0.254-0.01-0.431
									c-0.006-0.395-0.014-0.946-0.024-1.653c-0.013-1.45-0.031-3.535-0.054-6.163l0.098,0.098
									c-7.25,0.014-18.78,0.037-31.75,0.063c0.072-0.072-0.163,0.161,0.16-0.162v0.002v0.004v0.009v0.017v0.034v0.068l0,0.135
									v0.27v0.538c0,0.359,0,0.716,0,1.072c0,0.712,0,1.419-0.001,2.12c-0.001,1.402-0.002,2.781-0.003,4.132l-0.158-0.158
									c9.042,0.029,16.953,0.054,22.628,0.072c2.827,0.019,5.095,0.034,6.679,0.045c0.771,0.009,1.374,0.016,1.806,0.021
									c0.195,0.004,0.35,0.008,0.473,0.01C82.003,236.764,82.06,236.768,82.063,236.771c0.004,0.003-0.046,0.007-0.147,0.01
									c-0.117,0.003-0.267,0.006-0.453,0.01c-0.424,0.005-1.016,0.012-1.772,0.021c-1.576,0.011-3.831,0.026-6.642,0.045
									c-5.702,0.018-13.652,0.043-22.738,0.072l-0.158,0l0-0.159c-0.001-1.351-0.002-2.73-0.003-4.132c0-0.701,0-1.408-0.001-2.12
									c0-0.356,0-0.713,0-1.072l0-0.538v-0.27v-0.135v-0.068v-0.034v-0.017v-0.009v-0.004v-0.002
									c0.324-0.324,0.091-0.09,0.164-0.162c12.97,0.026,24.501,0.049,31.75,0.063l0.099,0l-0.001,0.098
									c-0.023,2.653-0.042,4.758-0.054,6.222c-0.01,0.697-0.018,1.241-0.024,1.631c-0.004,0.17-0.008,0.306-0.01,0.414
									C82.069,236.73,82.066,236.775,82.063,236.771z"/>
							</g>
						</g>
					</g>
				</g>
			</g>
		</g>
	</g>
	<g>
		<g>
			<g>
				<g>
					<g>
						<g>
							<g>
								<path style="fill:#E0E0E0;" d="M223.093,105.184c-0.003-0.003-0.007-0.055-0.01-0.153c-0.003-0.113-0.006-0.254-0.01-0.431
									c-0.006-0.395-0.014-0.946-0.024-1.653c-0.013-1.45-0.031-3.535-0.054-6.163l0.098,0.098
									c-7.25,0.014-18.78,0.037-31.751,0.063c0.072-0.072-0.163,0.161,0.16-0.162v0.002v0.004v0.008v0.017v0.034v0.068l0,0.135
									v0.27v0.538c0,0.358,0,0.716,0,1.072c0,0.712-0.001,1.419-0.001,2.12c-0.001,1.402-0.002,2.781-0.003,4.132l-0.158-0.158
									c9.042,0.029,16.953,0.054,22.628,0.072c2.827,0.019,5.095,0.034,6.679,0.045c0.77,0.009,1.374,0.016,1.806,0.021
									c0.194,0.004,0.35,0.008,0.472,0.01C223.033,105.177,223.09,105.18,223.093,105.184c0.004,0.003-0.046,0.007-0.147,0.01
									c-0.117,0.003-0.267,0.006-0.453,0.01c-0.424,0.005-1.016,0.012-1.772,0.021c-1.576,0.011-3.831,0.026-6.643,0.045
									c-5.702,0.018-13.652,0.043-22.738,0.072l-0.158,0l0-0.159c-0.001-1.351-0.002-2.73-0.003-4.132c0-0.701,0-1.408-0.001-2.12
									c0-0.356,0-0.713,0-1.072l0-0.538v-0.27v-0.135V96.85v-0.034v-0.017V96.79v-0.004v-0.002
									c0.324-0.324,0.091-0.09,0.164-0.162c12.97,0.026,24.501,0.049,31.751,0.063l0.099,0l-0.001,0.098
									c-0.023,2.654-0.042,4.758-0.054,6.222c-0.01,0.697-0.018,1.241-0.024,1.631c-0.004,0.17-0.008,0.306-0.01,0.414
									C223.1,105.142,223.097,105.187,223.093,105.184z"/>
							</g>
						</g>
					</g>
				</g>
			</g>
		</g>
	</g>
	<g>
		<g>
			<g>
				<g>
					<g>
						<g>
							<g>
								<path style="fill:#E0E0E0;" d="M447.816,94.17c-0.004-0.004-0.008-0.068-0.012-0.19c-0.003-0.14-0.008-0.316-0.013-0.536
									c-0.007-0.492-0.017-1.177-0.03-2.056c-0.016-1.803-0.039-4.396-0.068-7.665l0.122,0.122
									c-9.016,0.018-23.355,0.047-39.485,0.079c0.089-0.09-0.203,0.201,0.199-0.201v0.003v0.005v0.011v0.021v0.042v0.084l0,0.168
									v0.336v0.67c0,0.446,0,0.89,0,1.333c0,0.885-0.001,1.764-0.001,2.636c-0.001,1.744-0.002,3.458-0.003,5.138l-0.197-0.197
									c11.245,0.036,21.083,0.067,28.14,0.089c3.515,0.024,6.336,0.043,8.306,0.056c0.958,0.011,1.709,0.02,2.246,0.026
									c0.242,0.005,0.435,0.009,0.588,0.013C447.741,94.161,447.812,94.165,447.816,94.17c0.004,0.004-0.057,0.008-0.183,0.013
									c-0.146,0.003-0.331,0.007-0.563,0.013c-0.527,0.006-1.263,0.015-2.204,0.026c-1.96,0.013-4.765,0.033-8.261,0.056
									c-7.091,0.022-16.978,0.054-28.277,0.09l-0.197,0.001l0-0.197c-0.001-1.68-0.002-3.395-0.003-5.138
									c0-0.872,0-1.751-0.001-2.636c0-0.443,0-0.887,0-1.333l0-0.67v-0.336v-0.168v-0.084v-0.042v-0.021v-0.011v-0.005v-0.003
									c0.402-0.403,0.113-0.112,0.204-0.201c16.13,0.032,30.469,0.061,39.485,0.079l0.123,0l-0.001,0.122
									c-0.029,3.3-0.052,5.917-0.068,7.738c-0.013,0.867-0.023,1.543-0.03,2.028c-0.005,0.211-0.01,0.38-0.013,0.514
									C447.824,94.118,447.82,94.174,447.816,94.17z"/>
							</g>
						</g>
					</g>
				</g>
			</g>
		</g>
	</g>
	<g>
		<g>
			<g>
				<g>
					<g>
						<g>
							<rect x="98.601" y="277.879" style="fill:#E0E0E0;" width="31.752" height="8.4"/>
						</g>
					</g>
				</g>
			</g>
		</g>
	</g>
	<g>
		<g>
			<g>
				<g>
					<g>
						<rect x="121.168" y="41.693" style="fill:#E0E0E0;" width="31.753" height="8.4"/>
					</g>
				</g>
			</g>
		</g>
	</g>
	<g>
		<g>
			<g>
				<g>
					<g>
						<rect x="295.219" y="45.578" style="fill:#E0E0E0;" width="31.752" height="8.4"/>
					</g>
				</g>
			</g>
		</g>
	</g>
	<g>
		<g>
			<g>
				<g>
					<g>
						<rect x="352.709" y="168.579" style="fill:#E0E0E0;" width="31.752" height="8.4"/>
					</g>
				</g>
			</g>
		</g>
	</g>
	<g>
		<g>
			<g>
				<g>
					<g>
						<rect x="264.577" y="239.434" style="fill:#E0E0E0;" width="31.752" height="8.4"/>
					</g>
				</g>
			</g>
		</g>
	</g>
	<g>
		<g>
			<g>
				<g>
					<g>
						<g>
							<rect x="273.805" y="133.621" style="fill:#E0E0E0;" width="31.752" height="8.4"/>
						</g>
					</g>
				</g>
			</g>
		</g>
		<g>
			<g>
				<g>
					<g>
						<g>
							<g>
								<path style="fill:#E0E0E0;" d="M292.131,150.869c-0.003-0.003-0.006-0.055-0.01-0.153c-0.003-0.113-0.006-0.254-0.01-0.431
									c-0.006-0.395-0.014-0.947-0.024-1.653c-0.013-1.45-0.031-3.535-0.054-6.163l0.098,0.098
									c-7.25,0.014-18.78,0.037-31.751,0.063c0.072-0.072-0.163,0.162,0.16-0.161v0.002v0.004v0.008v0.017v0.034v0.068v0.135
									l0,0.27v0.539c0,0.358,0,0.716,0,1.072c0,0.712-0.001,1.419-0.001,2.12c-0.001,1.402-0.002,2.781-0.003,4.132l-0.158-0.158
									c9.042,0.029,16.953,0.054,22.628,0.072c2.826,0.019,5.095,0.034,6.679,0.045c0.771,0.009,1.374,0.016,1.806,0.021
									c0.194,0.004,0.35,0.008,0.472,0.01C292.071,150.862,292.127,150.865,292.131,150.869c0.004,0.003-0.046,0.007-0.147,0.01
									c-0.117,0.003-0.266,0.006-0.453,0.01c-0.424,0.005-1.016,0.012-1.772,0.021c-1.576,0.011-3.831,0.026-6.643,0.045
									c-5.702,0.018-13.652,0.043-22.738,0.072l-0.158,0v-0.159c-0.001-1.351-0.002-2.73-0.003-4.132c0-0.701,0-1.408-0.001-2.12
									c0-0.356,0-0.713,0-1.072l0-0.539v-0.27v-0.135v-0.068v-0.034v-0.017v-0.008v-0.004v-0.002
									c0.324-0.324,0.091-0.09,0.164-0.162c12.97,0.026,24.501,0.049,31.751,0.063l0.099,0l-0.001,0.098
									c-0.023,2.654-0.042,4.758-0.054,6.222c-0.01,0.697-0.018,1.241-0.024,1.631c-0.004,0.17-0.008,0.306-0.01,0.414
									C292.137,150.827,292.134,150.872,292.131,150.869z"/>
							</g>
						</g>
					</g>
				</g>
			</g>
		</g>
	</g>
	<g>
		<g>
			<g>
				<g>
					<g>
						<g>
							<rect x="428.033" y="216.971" style="fill:#E0E0E0;" width="31.752" height="8.4"/>
						</g>
					</g>
				</g>
			</g>
		</g>
		<g>
			<g>
				<g>
					<g>
						<g>
							<g>
								<path style="fill:#E0E0E0;" d="M446.359,234.219c-0.003-0.003-0.007-0.055-0.01-0.153c-0.003-0.112-0.006-0.254-0.01-0.431
									c-0.006-0.395-0.014-0.947-0.024-1.653c-0.013-1.45-0.031-3.535-0.054-6.163l0.098,0.098
									c-7.25,0.014-18.78,0.038-31.751,0.063c0.072-0.072-0.163,0.162,0.16-0.161v0.002v0.004v0.008v0.017v0.034v0.068v0.135
									l0,0.27v0.539c0,0.358,0,0.716,0,1.072c0,0.712-0.001,1.419-0.001,2.12c-0.001,1.402-0.002,2.781-0.003,4.132l-0.158-0.158
									c9.042,0.029,16.953,0.054,22.628,0.072c2.826,0.019,5.095,0.034,6.679,0.045c0.771,0.009,1.374,0.016,1.806,0.021
									c0.194,0.004,0.35,0.008,0.472,0.01C446.299,234.212,446.355,234.215,446.359,234.219c0.003,0.003-0.046,0.007-0.147,0.01
									c-0.117,0.003-0.267,0.006-0.453,0.01c-0.424,0.005-1.016,0.012-1.772,0.021c-1.576,0.011-3.832,0.026-6.643,0.045
									c-5.702,0.018-13.652,0.043-22.738,0.072l-0.158,0.001v-0.159c-0.001-1.351-0.002-2.73-0.003-4.132
									c0-0.701,0-1.408-0.001-2.12c0-0.356,0-0.713,0-1.072l0-0.539v-0.27v-0.135v-0.068v-0.034v-0.017v-0.008v-0.004v-0.002
									c0.324-0.324,0.091-0.09,0.164-0.162c12.971,0.026,24.501,0.049,31.751,0.063l0.099,0l-0.001,0.098
									c-0.023,2.654-0.042,4.758-0.054,6.222c-0.01,0.697-0.018,1.241-0.024,1.631c-0.004,0.17-0.008,0.306-0.01,0.414
									C446.365,234.177,446.362,234.222,446.359,234.219z"/>
							</g>
						</g>
					</g>
				</g>
			</g>
		</g>
	</g>
	<g>
		<g>
			<g>
				<g>
					<g>
						<g>
							<rect x="69.907" y="109.421" style="fill:#E0E0E0;" width="36.428" height="9.637"/>
						</g>
					</g>
				</g>
			</g>
		</g>
		<g>
			<g>
				<g>
					<g>
						<g>
							<g>
								<path style="fill:#E0E0E0;" d="M90.932,129.209c-0.004-0.004-0.008-0.063-0.011-0.175c-0.003-0.129-0.007-0.291-0.012-0.494
									c-0.007-0.454-0.016-1.086-0.027-1.896c-0.015-1.664-0.036-4.056-0.062-7.071l0.113,0.113
									c-8.318,0.017-21.545,0.043-36.426,0.073c0.082-0.082-0.187,0.185,0.184-0.185v0.002v0.005v0.01v0.019v0.039v0.078v0.155
									l0,0.31v0.618c0,0.411,0,0.821,0,1.229c0,0.817-0.001,1.628-0.001,2.432c-0.001,1.608-0.002,3.19-0.003,4.74l-0.181-0.182
									c10.373,0.033,19.449,0.062,25.96,0.083c3.243,0.022,5.845,0.039,7.663,0.052c0.884,0.01,1.576,0.018,2.072,0.024
									c0.223,0.005,0.401,0.009,0.542,0.012C90.863,129.201,90.928,129.205,90.932,129.209c0.004,0.004-0.053,0.008-0.169,0.012
									c-0.135,0.003-0.306,0.007-0.52,0.012c-0.486,0.006-1.166,0.014-2.033,0.024c-1.808,0.012-4.396,0.03-7.621,0.052
									c-6.542,0.021-15.663,0.049-26.086,0.082l-0.182,0.001v-0.182c-0.001-1.55-0.002-3.132-0.003-4.74
									c0-0.804,0-1.615-0.001-2.432c0-0.408,0-0.818,0-1.229l0-0.618v-0.31v-0.155v-0.078v-0.039v-0.019v-0.01v-0.005v-0.002
									c0.371-0.371,0.104-0.103,0.188-0.186c14.881,0.03,28.108,0.056,36.426,0.073l0.114,0l-0.001,0.113
									c-0.027,3.044-0.048,5.459-0.062,7.138c-0.012,0.8-0.021,1.424-0.028,1.871c-0.005,0.195-0.009,0.351-0.012,0.475
									C90.939,129.161,90.936,129.213,90.932,129.209z"/>
							</g>
						</g>
					</g>
				</g>
			</g>
		</g>
	</g>
	<g>
		<g>
			<path style="fill:#E0E0E0;" d="M425.337,434.447l2.918,3.599c0,0,4.085-0.584,9.921,0.584c5.836,1.167,18.577,0.194,18.285-2.091
				c-0.292-2.286-8.754-4.815-20.23-3.745C424.753,433.863,425.337,434.447,425.337,434.447z"/>
		</g>
		<g>
			<path style="fill:#E0E0E0;" d="M421.155,434.447l3.404,3.696c0,0-11.773,1.851-13.714-1.07
				c-1.751-2.634,10.796-2.626,10.796-2.626"/>
		</g>
	</g>
	<g>
		<g>
			<path style="fill:#E0E0E0;" d="M76.883,450.654l2.918-3.599c0,0,4.085,0.584,9.921-0.584c5.836-1.167,18.577-0.194,18.285,2.091
				c-0.292,2.286-8.754,4.815-20.23,3.745C76.3,451.238,76.883,450.654,76.883,450.654z"/>
		</g>
		<g>
			<path style="fill:#E0E0E0;" d="M72.701,450.654l3.404-3.696c0,0-11.773-1.851-13.714,1.07
				c-1.751,2.634,10.796,2.626,10.796,2.626"/>
		</g>
	</g>
</g>
<g id="Background_Simple" style="display:none;">
	<path style="display:inline;fill:#F5F5F5;" d="M99.506,109.868l1.108-3.718c9.338-31.341,34.749-55.408,66.554-61.614
		c4.088-0.798,8.236-1.301,12.408-1.488c30.04-1.352,60.419,13.686,77.886,38.553c10.272,14.625,16.838,32.839,31.653,42.705
		c19.281,12.84,44.718,6.748,66.781,0.236c22.063-6.512,47.534-12.543,66.76,0.382c12.04,8.095,18.907,22.289,21.845,36.579
		c7.778,37.833-9.496,77.999-38.225,103.232c-28.729,25.233-67.273,36.903-105.371,39.074
		c-53.371,3.041-108.925-12.413-149.244-48.181C111.34,219.859,88.558,162.72,99.506,109.868z"/>
</g>
<g id="Floor">
	<g>
		<g>
			<path style="fill:#263238;" d="M476.315,390.376c0,0.144-101.333,0.26-226.304,0.26c-125.015,0-226.326-0.117-226.326-0.26
				s101.311-0.26,226.326-0.26C374.982,390.115,476.315,390.232,476.315,390.376z"/>
		</g>
	</g>
</g>
<g id="Streetlight_00000155134846217962736360000008315685778175303047_">
	<g>
		<g>
			<path style="fill:#263238;" d="M421.965,391.043c-3.573,1.832-7.146,1.832-10.718,0V232.341h10.718V391.043z"/>
		</g>
		<g>
			<path style="fill:#263238;" d="M416.606,253.934L416.606,253.934c-1.814,0-3.284-1.47-3.284-3.284V39.759
				c0-1.814,1.47-3.284,3.284-3.284l0,0c1.814,0,3.284,1.47,3.284,3.284V250.65C419.89,252.464,418.42,253.934,416.606,253.934z"/>
		</g>
		<g>
			<path style="fill:#263238;" d="M364.499,33.329c0,0,8.203-8.095,27.728-4.821c19.525,3.274,22.768,13.185,22.768,13.185"/>
		</g>
		<g>
			<path style="fill:#E0E0E0;" d="M414.996,41.693c-0.287,1.735-11.824,1.27-25.769-1.04c-13.944-2.31-25.016-5.589-24.728-7.324
				c0.287-1.735,11.825-1.27,25.769,1.04S415.283,39.958,414.996,41.693z"/>
		</g>
	</g>
</g>
<g id="Plant">
	<g>
		<g>
			<g>
				<g>
					<path style="fill:#455A64;" d="M454.343,351.509c-1.855,0.618-3.315,2.153-4.136,3.927c-0.821,1.774-1.057,3.771-1.009,5.726
						c0.094,3.782,1.888,7.749,3.915,10.943c3.396-2.473,4.545-7.21,4.977-9.649C458.772,358.6,457.665,351.218,454.343,351.509"/>
				</g>
			</g>
		</g>
		<g>
			<g>
				<g>
					<path style="fill:#455A64;" d="M448.902,377.961c0.691-2.072,0.016-4.471-1.481-6.062c-1.497-1.591-3.712-2.403-5.896-2.429
						c-1.01-0.012-2.12,0.185-2.767,0.96c-0.605,0.725-0.64,1.807-0.278,2.679c0.362,0.872,1.061,1.562,1.814,2.132
						C442.875,377.197,445.732,378.616,448.902,377.961"/>
				</g>
			</g>
		</g>
		<g>
			<g>
				<g>
					<g>
						<path style="fill:#263238;" d="M451.933,389.799c0.02-0.003,0-0.28-0.044-0.778c-0.051-0.55-0.118-1.26-0.198-2.113
							c-0.195-1.768-0.423-4.297-1.56-6.832c-1.119-2.528-2.827-4.467-4.32-5.486c-0.74-0.52-1.398-0.849-1.868-1.031
							c-0.231-0.101-0.422-0.149-0.547-0.192c-0.127-0.039-0.194-0.054-0.197-0.046c-0.028,0.059,1.069,0.358,2.499,1.425
							c1.436,1.041,3.083,2.957,4.184,5.442c1.115,2.483,1.374,4.979,1.617,6.742c0.114,0.888,0.207,1.608,0.285,2.103
							C451.86,389.529,451.915,389.801,451.933,389.799z"/>
					</g>
				</g>
			</g>
		</g>
		<g>
			<g>
				<g>
					<g>
						<path style="fill:#263238;" d="M454.689,357.205c-0.009-0.001-0.033,0.113-0.068,0.332c-0.037,0.248-0.084,0.566-0.143,0.96
							c-0.119,0.834-0.275,2.044-0.456,3.539c-0.362,2.992-0.804,7.132-1.189,11.714c-0.384,4.584-0.638,8.74-0.779,11.75
							c-0.071,1.505-0.118,2.723-0.14,3.566c-0.008,0.398-0.014,0.72-0.02,0.97c-0.001,0.222,0.002,0.339,0.012,0.339
							c0.009,0,0.024-0.116,0.043-0.337c0.018-0.25,0.042-0.571,0.071-0.968c0.056-0.875,0.133-2.083,0.227-3.56
							c0.191-3.006,0.475-7.157,0.859-11.738c0.385-4.579,0.796-8.719,1.109-11.715c0.153-1.473,0.278-2.676,0.369-3.548
							c0.037-0.396,0.068-0.717,0.091-0.966C454.694,357.323,454.699,357.206,454.689,357.205z"/>
					</g>
				</g>
			</g>
		</g>
		<g>
			<g>
				<g>
					<path style="fill:#455A64;" d="M454.156,380.722c1.117-4.467,4.532-8.293,8.843-9.91c1.098-0.412,2.503-0.62,3.3,0.24
						c0.798,0.862,0.48,2.253-0.041,3.306c-2.166,4.381-7.192,7.165-12.055,6.678"/>
				</g>
			</g>
		</g>
		<g>
			<g>
				<g>
					<g>
						<path style="fill:#263238;" d="M462.175,374.319c-0.007-0.018-0.253,0.066-0.695,0.233c-0.221,0.082-0.492,0.184-0.792,0.336
							c-0.299,0.152-0.656,0.294-1.016,0.519c-0.366,0.213-0.772,0.437-1.174,0.732c-0.419,0.271-0.832,0.606-1.266,0.961
							c-0.847,0.732-1.714,1.619-2.479,2.664c-0.756,1.053-1.333,2.151-1.76,3.187c-0.197,0.525-0.387,1.023-0.506,1.508
							c-0.15,0.476-0.23,0.934-0.31,1.349c-0.095,0.413-0.109,0.798-0.153,1.131c-0.045,0.333-0.049,0.622-0.05,0.859
							c-0.007,0.472-0.002,0.732,0.017,0.733c0.062,0.003,0.046-1.045,0.376-2.685c0.091-0.408,0.181-0.857,0.338-1.322
							c0.127-0.475,0.322-0.962,0.522-1.475c0.433-1.013,1.006-2.087,1.748-3.122c0.752-1.027,1.597-1.903,2.422-2.634
							c0.422-0.355,0.824-0.692,1.232-0.967c0.391-0.298,0.786-0.529,1.141-0.75C461.211,374.722,462.198,374.374,462.175,374.319z"
							/>
					</g>
				</g>
			</g>
		</g>
	</g>
</g>
<g id="Footprints">
	<g>
		<g>
			<g>
				<path style="fill:#263238;" d="M238.483,454.202l2.918-3.599c0,0,4.085,0.583,9.921-0.584
					c5.836-1.167,18.577-0.194,18.285,2.091c-0.292,2.286-8.753,4.814-20.23,3.745C237.9,454.785,238.483,454.202,238.483,454.202z"
					/>
			</g>
			<g>
				<path style="fill:#263238;" d="M234.301,454.202l3.404-3.696c0,0-11.773-1.851-13.714,1.07
					c-1.751,2.634,10.796,2.626,10.796,2.626"/>
			</g>
		</g>
		<g>
			<g>
				<path style="fill:#263238;" d="M349.794,457.09l2.918-3.599c0,0,4.085,0.584,9.921-0.583c5.836-1.167,18.577-0.194,18.285,2.091
					c-0.292,2.286-8.753,4.814-20.23,3.745C349.21,457.674,349.794,457.09,349.794,457.09z"/>
			</g>
			<g>
				<path style="fill:#263238;" d="M345.612,457.09l3.404-3.696c0,0-11.773-1.851-13.714,1.07
					c-1.751,2.634,10.796,2.626,10.796,2.626"/>
			</g>
		</g>
		<g>
			<g>
				<path style="fill:#263238;" d="M302.44,431.558l2.918,3.599c0,0,4.085-0.584,9.921,0.584c5.836,1.167,18.577,0.194,18.285-2.091
					c-0.292-2.286-8.754-4.815-20.23-3.745C301.857,430.975,302.44,431.558,302.44,431.558z"/>
			</g>
			<g>
				<path style="fill:#263238;" d="M298.258,431.558l3.404,3.696c0,0-11.773,1.851-13.714-1.07
					c-1.751-2.634,10.796-2.626,10.796-2.626"/>
			</g>
		</g>
		<g>
			<g>
				<path style="fill:#263238;" d="M189.91,430.585l2.918,3.599c0,0,4.085-0.584,9.921,0.584c5.836,1.167,18.577,0.195,18.285-2.091
					c-0.292-2.286-8.753-4.815-20.23-3.745C189.327,430.002,189.91,430.585,189.91,430.585z"/>
			</g>
			<g>
				<path style="fill:#263238;" d="M185.728,430.585l3.404,3.696c0,0-11.773,1.851-13.714-1.07
					c-1.751-2.634,10.796-2.626,10.796-2.626"/>
			</g>
		</g>
	</g>
</g>
<g id="Boxes">
	<g>
		<g>
			<g>
				<rect x="272.322" y="323.641" style="fill:#AE7461;" width="97.305" height="66.43"/>
			</g>
			<g>
				<rect x="328.361" y="323.641" style="fill:#6F4439;" width="41.266" height="66.43"/>
			</g>
			<g style="opacity:0.3;">
				<rect x="277.674" y="375.696" style="fill:#FFFFFF;" width="10.425" height="10.425"/>
			</g>
			<g>
				<g>
					<path style="fill:#263238;" d="M369.685,358.852c0,0.144-9.16,0.26-20.457,0.26c-11.301,0-20.459-0.117-20.459-0.26
						s9.158-0.26,20.459-0.26C360.525,358.592,369.685,358.708,369.685,358.852z"/>
				</g>
			</g>
			<g style="opacity:0.3;">
				<rect x="295.015" y="323.641" style="fill:#FFFFFF;" width="9.58" height="12.123"/>
			</g>
		</g>
		<g>
			<g>
				<rect x="222.975" y="355.06" style="fill:#FF725E;" width="68.267" height="35.011"/>
			</g>
			<g style="opacity:0.3;">
				<rect x="262.29" y="355.06" width="28.952" height="35.011"/>
			</g>
			<g style="opacity:0.3;">
				<rect x="226.73" y="379.785" style="fill:#FFFFFF;" width="7.314" height="8.204"/>
			</g>
			<g>
				<g>
					<path style="fill:#263238;" d="M291.282,373.617c0,0.144-6.427,0.26-14.352,0.26c-7.929,0-14.354-0.116-14.354-0.26
						c0-0.144,6.425-0.26,14.354-0.26C284.855,373.357,291.282,373.474,291.282,373.617z"/>
				</g>
			</g>
			<g style="opacity:0.3;">
				<rect x="238.895" y="355.06" style="fill:#FFFFFF;" width="6.721" height="6.389"/>
			</g>
		</g>
	</g>
</g>
<g id="Speech_Bubble">
	<g>
		<g>
			
				<ellipse transform="matrix(0.3341 -0.9425 0.9425 0.3341 -41.3846 257.1891)" style="fill:#FFFFFF;" cx="161.334" cy="157.885" rx="24.258" ry="24.258"/>
		</g>
		<g>
			<path style="fill:#263238;" d="M184.832,151.862c-0.008,0.002-0.055-0.123-0.14-0.369c-0.089-0.266-0.209-0.629-0.364-1.094
				c-0.079-0.243-0.167-0.512-0.263-0.807c-0.11-0.292-0.259-0.601-0.403-0.941c-0.295-0.678-0.614-1.471-1.115-2.294
				c-0.882-1.705-2.282-3.626-4.204-5.55c-1.93-1.911-4.482-3.771-7.644-5.092c-3.149-1.305-6.913-2.136-10.933-1.83
				c-3.987,0.323-8.268,1.547-11.974,4.16c-0.959,0.603-1.809,1.371-2.694,2.114c-0.423,0.393-0.815,0.825-1.227,1.238
				c-0.425,0.404-0.791,0.864-1.157,1.329c-0.78,0.892-1.399,1.918-2.065,2.922c-0.561,1.067-1.166,2.127-1.589,3.283
				c-0.892,2.279-1.554,4.727-1.683,7.265c-0.16,2.531,0.068,5.117,0.681,7.651c0.681,2.518,1.725,4.896,3.082,7.038
				c1.334,2.164,3.092,3.992,4.971,5.562c0.927,0.811,1.968,1.449,2.973,2.115c1.067,0.561,2.103,1.162,3.216,1.569
				c0.544,0.231,1.086,0.459,1.653,0.609c0.561,0.164,1.112,0.354,1.672,0.495c1.134,0.226,2.249,0.491,3.38,0.558
				c4.506,0.508,8.848-0.478,12.5-2.113c3.671-1.666,6.571-4.205,8.704-6.864c2.137-2.68,3.479-5.537,4.251-8.141
				c0.759-2.611,1.062-4.969,1.015-6.888c0.044-0.962-0.058-1.81-0.126-2.547c-0.037-0.368-0.055-0.71-0.099-1.019
				c-0.058-0.305-0.111-0.583-0.158-0.834c-0.088-0.482-0.157-0.858-0.207-1.134C184.843,151.996,184.824,151.864,184.832,151.862
				c0.008-0.002,0.042,0.127,0.101,0.38c0.062,0.275,0.145,0.649,0.253,1.128c0.054,0.251,0.115,0.529,0.181,0.833
				c0.052,0.309,0.077,0.652,0.122,1.021c0.082,0.74,0.199,1.592,0.169,2.562c0.075,1.933-0.203,4.316-0.947,6.962
				c-0.757,2.639-2.094,5.542-4.243,8.271c-2.145,2.708-5.076,5.301-8.799,7.01c-3.702,1.677-8.115,2.694-12.704,2.19
				c-1.151-0.066-2.287-0.332-3.442-0.56c-0.571-0.142-1.132-0.334-1.704-0.5c-0.577-0.152-1.13-0.382-1.685-0.617
				c-1.134-0.413-2.191-1.023-3.279-1.593c-1.026-0.676-2.086-1.326-3.032-2.15c-1.917-1.597-3.709-3.459-5.071-5.664
				c-1.386-2.183-2.45-4.607-3.144-7.173c-0.626-2.582-0.857-5.219-0.692-7.798c0.134-2.587,0.81-5.082,1.722-7.403
				c0.433-1.178,1.05-2.257,1.624-3.342c0.679-1.023,1.313-2.065,2.108-2.973c0.374-0.472,0.747-0.94,1.18-1.351
				c0.421-0.421,0.821-0.859,1.253-1.258c0.903-0.756,1.77-1.535,2.748-2.146c3.78-2.649,8.137-3.88,12.189-4.191
				c4.086-0.294,7.903,0.57,11.086,1.912c3.197,1.359,5.765,3.26,7.699,5.21c1.925,1.962,3.315,3.918,4.18,5.648
				c0.492,0.835,0.8,1.639,1.084,2.327c0.139,0.345,0.281,0.658,0.385,0.954c0.089,0.299,0.169,0.572,0.243,0.818
				c0.136,0.472,0.243,0.84,0.321,1.111C184.808,151.731,184.84,151.86,184.832,151.862z"/>
		</g>
		<g>
			<g>
				<path style="fill:#263238;" d="M153.453,152.703h4.153c0,0,0-3.487,3.624-3.549c1.882-0.033,2.858,1.2,3.254,2.145
					c0.46,1.097,0.321,2.346-0.296,3.363c-0.704,1.161-2.248,2.217-5.047,1.724v9.364h4.107v-5.485c0,0,5.759-1.489,5.759-7.836
					c0-6.073-5.446-7.483-7.777-7.483C159.447,144.946,153.375,145.377,153.453,152.703z"/>
			</g>
			<g>
				<rect x="159.13" y="167.679" style="fill:#263238;" width="4.168" height="3.892"/>
			</g>
		</g>
		<g>
			<path style="fill:#FFFFFF;" d="M176.299,186.441c-0.725,1.457-2.493,2.05-3.95,1.326c-1.457-0.725-2.05-2.493-1.326-3.95
				c0.725-1.457,2.493-2.05,3.95-1.325C176.431,183.215,177.024,184.984,176.299,186.441z"/>
		</g>
		<g>
			<path style="fill:#263238;" d="M176.299,186.44c-0.037-0.017,0.075-0.255,0.15-0.704c0.073-0.441,0.075-1.13-0.296-1.838
				c-0.351-0.7-1.146-1.379-2.182-1.482c-1.016-0.126-2.215,0.426-2.739,1.503c-0.543,1.068-0.259,2.357,0.454,3.092
				c0.707,0.764,1.729,0.989,2.498,0.846c0.788-0.131,1.336-0.549,1.644-0.873C176.141,186.654,176.263,186.421,176.299,186.44
				c0.021,0.008-0.045,0.272-0.334,0.662c-0.284,0.381-0.847,0.886-1.719,1.078c-0.851,0.203-2.032-0.006-2.87-0.874
				c-0.845-0.831-1.198-2.342-0.559-3.594c0.614-1.263,2.031-1.894,3.203-1.721c1.197,0.145,2.076,0.961,2.428,1.761
				c0.373,0.811,0.31,1.566,0.178,2.022C176.489,186.24,176.319,186.452,176.299,186.44z"/>
		</g>
	</g>
</g>
<g id="Character_00000072247374896083401850000012267549848827904658_">
	<g>
		<g>
			<g>
				<g>
					<path style="fill:#FFBF9D;" d="M246.248,271.907c0.375-0.118,7.307-8.449,9.062-9.415c1.756-0.967,5.328-4.403,6.486-6.087
						c1.158-1.685,2.868,0.99,1.343,3.862s-5.401,4.302-5.285,6.367c0.116,2.065,0.921,5.397-1.44,8.492
						c0,0-4.872,1.539-7.494,0.676C246.299,274.941,246.248,271.907,246.248,271.907z"/>
				</g>
				<g>
					<path style="fill:#FFBF9D;" d="M246.658,271.523l15.082-10.404l4.228-1.292c0,0-1.802,11.93-2.799,15.84
						c-0.145,0.57-2.252,2.562-2.314,2.67c-0.49,0.844-5.673,4.691-8.636,4.22c-2.963-0.471-14.889,6.924-14.889,6.924l3.336-14.934
						L246.658,271.523z"/>
				</g>
				<g>
					<polygon style="fill:#263238;" points="267.41,256.641 256.757,278.474 254.217,277.247 265.802,256.384 					"/>
				</g>
				<g>
					<g>
						<path style="fill:#FFBF9D;" d="M264.402,275.119c0.958-1.318-0.322-2.076-0.322-2.076s2.756-0.934,3.13-2.419
							c0.373-1.485-1.701-2.466-1.701-2.466s2.831-1.402,2.292-2.758c-0.539-1.355-1.791-1.898-1.791-1.898s1.556-1.331,1.323-2.26
							c-0.233-0.929-1.287-1.852-2.603-1.341c-1.316,0.511-2.264,1.87-1.679,2.752c0.586,0.882,0.793,1.087,0.793,1.087
							s-4.117,0.933-4.975,2.159c-0.99,1.414-0.317,2.595,0.717,2.825c0,0-1.624,0.083-1.676,1.689
							c-0.052,1.606,1.151,2.036,0.984,2.009c-0.167-0.027-2.215,0.334-2.457,1.427c-0.243,1.094,0.473,2.203,2.474,2.349
							C260.913,276.348,263.128,276.872,264.402,275.119z"/>
					</g>
					<g>
						<g>
							<path style="fill:#FF9A6C;" d="M264.402,275.119c0.011,0.008-0.051,0.106-0.185,0.289c-0.143,0.173-0.375,0.428-0.763,0.642
								c-0.381,0.22-0.911,0.387-1.539,0.441c-0.628,0.053-1.346,0.01-2.131-0.059c-0.76-0.09-1.703-0.009-2.597-0.538
								c-0.439-0.245-0.83-0.695-0.949-1.255c-0.06-0.278-0.056-0.569,0.01-0.853c0.07-0.313,0.272-0.573,0.498-0.762
								c0.463-0.38,1.016-0.588,1.59-0.733c0.146-0.036,0.289-0.065,0.455-0.083c0.02-0.002,0.04-0.005,0.08-0.004l0.052,0.002
								c0.05,0-0.139-0.024-0.196,0.086c-0.05,0.098-0.046,0.126-0.031,0.202c0.099,0.158,0.059,0.071,0.059,0.089l-0.018-0.012
								l-0.048-0.032c-0.065-0.044-0.13-0.094-0.192-0.145c-0.248-0.21-0.455-0.477-0.592-0.782
								c-0.257-0.613-0.329-1.302-0.064-1.98c0.288-0.694,1.009-1.084,1.732-1.15l-0.041,0.483c-0.79-0.143-1.464-0.943-1.396-1.8
								c0.013-0.419,0.165-0.81,0.363-1.156c0.173-0.35,0.533-0.678,0.855-0.876c1.355-0.831,2.872-1.246,4.432-1.644l-0.125,0.439
								c-0.04-0.055-0.085-0.115-0.129-0.174l-0.443-0.603c-0.137-0.199-0.315-0.382-0.411-0.686
								c-0.175-0.585,0.055-1.146,0.343-1.554c0.608-0.81,1.493-1.407,2.546-1.403c1.053,0.061,1.91,0.874,2.036,1.913
								c-0.018,0.556-0.291,0.955-0.547,1.313c-0.271,0.356-0.565,0.663-0.892,0.951l-0.06-0.4c0.592,0.292,1.057,0.697,1.429,1.185
								c0.181,0.244,0.337,0.505,0.448,0.783c0.126,0.297,0.14,0.677,0.019,0.97c-0.247,0.581-0.676,0.965-1.092,1.293
								c-0.425,0.327-0.859,0.593-1.31,0.822l-0.003-0.359c0.721,0.39,1.359,0.885,1.685,1.599c0.158,0.354,0.184,0.761,0.085,1.113
								c-0.099,0.358-0.312,0.638-0.526,0.877c-0.917,0.914-1.937,1.284-2.725,1.576l0.02-0.192
								c0.722,0.475,0.796,1.275,0.604,1.641C264.579,274.982,264.402,275.119,264.402,275.119c-0.027-0.016,0.115-0.185,0.232-0.56
								c0.144-0.358,0.033-1.031-0.607-1.424l-0.179-0.11l0.199-0.083c0.744-0.309,1.75-0.729,2.56-1.586
								c0.398-0.42,0.633-1.05,0.346-1.634c-0.266-0.577-0.877-1.05-1.528-1.384l-0.347-0.178l0.344-0.182
								c0.414-0.219,0.837-0.486,1.227-0.796c0.388-0.306,0.763-0.682,0.938-1.115c0.079-0.222,0.066-0.421-0.021-0.641
								c-0.099-0.241-0.238-0.467-0.399-0.68c-0.32-0.42-0.771-0.794-1.251-1.025l-0.323-0.156l0.263-0.245
								c0.55-0.512,1.208-1.209,1.254-1.892c-0.08-0.68-0.786-1.41-1.563-1.413c-0.771-0.02-1.615,0.514-2.097,1.189
								c-0.244,0.34-0.382,0.762-0.272,1.103c0.039,0.157,0.193,0.336,0.329,0.526l0.405,0.559c0.04,0.056,0.08,0.111,0.117,0.163
								l0.249,0.345l-0.374,0.094c-1.508,0.38-3.041,0.814-4.265,1.564c-0.309,0.205-0.532,0.387-0.698,0.705
								c-0.169,0.293-0.29,0.61-0.299,0.921c-0.047,0.63,0.411,1.177,1,1.301l1.583,0.333l-1.624,0.15
								c-0.556,0.051-1.126,0.356-1.322,0.85c-0.206,0.487-0.161,1.124,0.045,1.602c0.106,0.245,0.268,0.459,0.465,0.63
								c0.05,0.042,0.101,0.082,0.155,0.12l0.042,0.029l0.027,0.019c0.014,0.028-0.01-0.05,0.102,0.122
								c0.022,0.083,0.036,0.118-0.03,0.214c-0.034,0.046-0.101,0.082-0.151,0.087c-0.079,0.142-0.054-0.196-0.055-0.119
								c-0.027,0.164-0.017,0.114-0.02,0.121l-0.028,0.002c-0.121,0.012-0.261,0.037-0.393,0.068
								c-0.529,0.124-1.044,0.32-1.423,0.625c-0.187,0.152-0.327,0.338-0.375,0.541c-0.056,0.225-0.063,0.461-0.019,0.679
								c0.087,0.439,0.381,0.805,0.756,1.025c0.754,0.478,1.657,0.44,2.438,0.546c1.556,0.21,2.818,0.186,3.565-0.224
								C264.132,275.53,264.36,275.075,264.402,275.119z"/>
						</g>
					</g>
				</g>
				<g>
					<g>
						<path style="fill:#455A64;" d="M277.046,233.052c0.586-0.359,1.102-0.474,1.513-0.296c1.815,0.785,0.901,6.933-2.041,13.731
							c-2.942,6.798-6.798,11.672-8.612,10.887c-0.296-0.128-0.518-0.401-0.672-0.794c2.002-1.227,4.824-5.332,7.1-10.591
							C276.795,240.299,277.835,235.068,277.046,233.052z"/>
					</g>
					<g>
						<path style="fill:#263238;" d="M267.761,243.145c2.942-6.798,6.587-11.464,8.811-10.891c0.123,0.031,1.859,0.458,1.859,0.458
							s-0.697-0.003-1.386,0.341c-2.002,1.227-4.824,5.332-7.1,10.591c-2.462,5.69-3.502,10.921-2.713,12.937
							c0.122,0.323,0.748,0.823,0.748,0.823s-1.992-0.41-2.261-0.527C263.906,256.091,264.819,249.943,267.761,243.145z"/>
					</g>
					<g style="opacity:0.3;">
						<path style="fill:#FFFFFF;" d="M269.946,243.643c-2.942,6.798-3.855,12.946-2.041,13.731
							c1.815,0.785,5.671-4.089,8.612-10.887c2.942-6.798,3.855-12.946,2.041-13.731
							C276.744,231.97,272.888,236.845,269.946,243.643z"/>
					</g>
					<g>
						<g>
							<path style="fill:#263238;" d="M274.252,248.659c-0.141,0.029-0.603-1.64-1.033-3.727c-0.43-2.088-0.664-3.803-0.523-3.833
								c0.141-0.029,0.603,1.64,1.033,3.728C274.158,246.914,274.392,248.63,274.252,248.659z"/>
						</g>
					</g>
					<g>
						<g>
							<path style="fill:#263238;" d="M273.219,250.732c-0.138,0.04-0.597-1.137-1.024-2.628c-0.427-1.491-0.662-2.732-0.524-2.772
								c0.138-0.04,0.597,1.137,1.024,2.628C273.122,249.451,273.357,250.692,273.219,250.732z"/>
						</g>
					</g>
				</g>
				<g>
					<g>
						<path style="fill:#FFBF9D;" d="M266.097,263.531c-0.754-0.138-1.54-0.092-2.273,0.132"/>
					</g>
					<g>
						<g>
							<path style="fill:#FF9A6C;" d="M263.824,263.663c-0.049-0.132,0.437-0.424,1.113-0.462c0.676-0.041,1.193,0.193,1.16,0.33
								c-0.031,0.144-0.533,0.152-1.129,0.19C264.372,263.753,263.872,263.802,263.824,263.663z"/>
						</g>
					</g>
				</g>
				<g>
					<g>
						<path style="fill:#FF9A6C;" d="M259.529,268.717c-0.013-0.143,1.324-0.385,2.988-0.54c1.664-0.155,3.023-0.164,3.036-0.021
							c0.013,0.143-1.324,0.385-2.988,0.54C260.902,268.851,259.542,268.86,259.529,268.717z"/>
					</g>
				</g>
				<g>
					<g>
						<path style="fill:#FF9A6C;" d="M258.618,272.314c0.036-0.143,1.27,0.051,2.787,0.247c1.518,0.201,2.759,0.331,2.757,0.478
							c0,0.14-1.273,0.243-2.825,0.038C259.785,272.877,258.582,272.449,258.618,272.314z"/>
					</g>
				</g>
				<g>
					<g>
						<path style="fill:#FF9A6C;" d="M251.537,276.277c-0.005-0.094,0.773-0.058,1.822-0.616c1.047-0.536,2.291-1.679,3.203-3.253
							c0.441-0.786,0.85-1.579,1.013-2.321c0.178-0.768,0.287-1.483,0.365-2.08c0.172-1.203,0.095-1.926,0.141-1.946
							c0.092-0.034,0.309,0.747,0.226,1.979c-0.033,0.616-0.103,1.344-0.263,2.151c-0.161,0.842-0.569,1.652-1.032,2.482
							c-0.955,1.651-2.328,2.836-3.493,3.321C252.343,276.503,251.518,276.324,251.537,276.277z"/>
					</g>
				</g>
			</g>
			<g>
				<path style="fill:#E0E0E0;" d="M241.639,273.173l2.811-0.848c0,0,2.322,16.666,2.267,16.751c-0.054,0.086-2.678,0.6-2.679,0.588
					C244.036,289.654,241.639,273.173,241.639,273.173z"/>
			</g>
			<g>
				<path style="fill:#FF725E;" d="M199.51,261.152c0.932,0.561,13.306,17.942,13.306,17.942l28.876-6.26
					c0,0,3.801,25.327,3.509,25.733c-0.326,0.455-29.1,7.663-36.729,5.435c-7.63-2.228-29.251-20.852-29.251-20.852l-3.44-3.865
					L199.51,261.152z"/>
			</g>
			<g>
				<g>
					<path style="fill:#263238;" d="M210.019,280.759c0.064,0.047-0.731,1.127-1.937,2.942c-1.16,1.806-2.848,4.452-3.188,7.796
						l-0.454-0.195c0.213-0.247,0.439-0.51,0.668-0.776c2.351-2.762,4.223-5.469,5.501-7.474c1.279-2.006,1.996-3.296,2.067-3.259
						c0.031,0.016-0.111,0.359-0.403,0.961c-0.295,0.6-0.746,1.457-1.35,2.491c-1.205,2.066-3.046,4.832-5.418,7.619
						c-0.231,0.268-0.46,0.533-0.675,0.782l-0.537,0.621l0.083-0.817c0.177-1.737,0.729-3.312,1.386-4.631
						c0.654-1.327,1.388-2.425,2.027-3.317c0.642-0.892,1.194-1.582,1.583-2.049C209.763,280.984,209.993,280.739,210.019,280.759z"
						/>
				</g>
			</g>
			<g style="opacity:0.3;">
				<path d="M202.457,265.644c-0.398,0.299-20.004,20.229-20.004,20.229s-1.104-0.922-3.231-2.724L202.457,265.644z"/>
			</g>
		</g>
		<g>
			<g>
				<path style="fill:#E0E0E0;" d="M186.903,305.945c1.27-2.101,1.71-4.502,0.94-6.648c-0.771-2.146-2.806-4.018-5.078-3.826
					c-0.178-1.553-0.842-3.046-1.875-4.219c-7.057,4.322-14.779,7.555-22.811,9.549l2.436,9.983L186.903,305.945z"/>
			</g>
			<g style="opacity:0.3;">
				<path d="M171.038,296.392c0,0,2.133,2.048,0.328,2.882c-4.23,1.956-1.492,9.794-1.692,9.831c-0.2,0.037-3.158,0.557-3.158,0.557
					l-2.529-10.388L171.038,296.392z"/>
			</g>
			<g>
				<g>
					<path style="fill:#263238;" d="M158.526,303.077c-0.009-0.035,0.324-0.163,0.935-0.365c0.725-0.229,1.59-0.502,2.596-0.82
						c2.325-0.721,5.292-1.641,8.574-2.659c3.276-1.042,6.237-1.983,8.557-2.721c1.008-0.313,1.874-0.582,2.6-0.807
						c0.617-0.182,0.964-0.267,0.976-0.233c0.012,0.034-0.312,0.183-0.909,0.424c-0.597,0.242-1.467,0.572-2.548,0.965
						c-2.162,0.786-5.17,1.815-8.519,2.869c-3.349,1.052-6.405,1.928-8.629,2.516c-1.112,0.295-2.015,0.52-2.644,0.662
						C158.887,303.05,158.536,303.112,158.526,303.077z"/>
				</g>
			</g>
		</g>
		<g>
			<path style="fill:#FF725E;" d="M207.095,229.547l9.837,19.726c0,0-8.337,2.205-7.893,2.5c0.443,0.296,1.901,2.756,1.901,2.756
				s-5.669,0.566-7.584,2.487c-0.308,0.309,4.039,3.595,2.668,5.069c-7.141,7.677-31.577,26.252-37.777,33.196
				c0,0,2.81,2.803,1.189,4.019c-1.621,1.216-3.039,2.634-3.039,2.634s4.255,50.45,7.294,60.581
				c3.039,10.13-54.502-4.052-66.254-10.941c-11.751-6.889-25.777-22.287-25.777-22.287L181.997,237.1L207.095,229.547z"/>
		</g>
		<g style="opacity:0.3;">
			<path d="M212.145,239.803l3.182,6.346c0,0-16.73,4.249-16.085,4.679c0.645,0.43-31.493,23.061-36.639,27.679
				c-4.108,3.687-2.348,17.602-5.967,21.382c-3.11,3.248,6.987,29.634,16.823,48.214l-14.234,18.632l-39.431-8.863l47.427-94.352
				c0,0,25.981-30.17,27.497-29.49c1.516,0.68,5.685-1.622,6.647-0.811C202.327,234.03,212.145,239.803,212.145,239.803z"/>
		</g>
		<g>
			<g>
				<g>
					<g>
						<g>
							<g>
								<g>
									<g>
										<g>
											<g>
												<g>
													<g>
														<g>
															<g>
																<g>
																	<g>
																		<g>
																			<g>
																				<g>
																					<path style="fill:#263238;" d="M164.556,425.654l-4.581,18.238c0,0,21.304,7.196,21.657,11.08l-40.738,1.193
																						l-0.436-12.667l4.587-20.612L164.556,425.654z"/>
																				</g>
																			</g>
																		</g>
																	</g>
																</g>
															</g>
														</g>
													</g>
												</g>
											</g>
										</g>
									</g>
								</g>
							</g>
						</g>
					</g>
					<g>
						<g>
							<g>
								<g>
									<g>
										<g>
											<g>
												<g>
													<g>
														<g>
															<g>
																<g>
																	<g>
																		<g>
																			<g>
																				<g>
																					<path style="fill:#455A64;" d="M140.893,456.165l0.016-3.304l39.053,0.092c0,0,1.837,0.736,1.669,2.02
																						L140.893,456.165z"/>
																				</g>
																			</g>
																		</g>
																	</g>
																</g>
															</g>
														</g>
													</g>
												</g>
											</g>
										</g>
									</g>
								</g>
							</g>
						</g>
					</g>
					<g>
						<g>
							<g>
								<g>
									<g>
										<g>
											<g>
												<g>
													<g>
														<g>
															<g>
																<g>
																	<g>
																		<g>
																			<g>
																				<g>
																					<g>
																						<path style="fill:#FFFFFF;" d="M160.629,443.664c-0.001,0.199-0.993,0.319-1.953,0.987
																							c-0.978,0.644-1.457,1.52-1.642,1.446c-0.184-0.033,0.077-1.231,1.254-2.02
																							C159.457,443.279,160.667,443.481,160.629,443.664z"/>
																					</g>
																				</g>
																			</g>
																		</g>
																	</g>
																</g>
															</g>
														</g>
													</g>
												</g>
											</g>
										</g>
									</g>
								</g>
							</g>
						</g>
					</g>
					<g>
						<g>
							<g>
								<g>
									<g>
										<g>
											<g>
												<g>
													<g>
														<g>
															<g>
																<g>
																	<g>
																		<g>
																			<g>
																				<g>
																					<g>
																						<path style="fill:#FFFFFF;" d="M164.954,445.307c0.051,0.191-0.8,0.555-1.451,1.416
																							c-0.676,0.842-0.82,1.757-1.019,1.753c-0.186,0.037-0.358-1.124,0.472-2.179
																							C163.776,445.235,164.944,445.117,164.954,445.307z"/>
																					</g>
																				</g>
																			</g>
																		</g>
																	</g>
																</g>
															</g>
														</g>
													</g>
												</g>
											</g>
										</g>
									</g>
								</g>
							</g>
						</g>
					</g>
					<g>
						<g>
							<g>
								<g>
									<g>
										<g>
											<g>
												<g>
													<g>
														<g>
															<g>
																<g>
																	<g>
																		<g>
																			<g>
																				<g>
																					<g>
																						<path style="fill:#FFFFFF;" d="M167.53,450.349c-0.18,0.048-0.486-0.938-0.007-2.042
																							c0.471-1.108,1.397-1.565,1.486-1.402c0.117,0.16-0.469,0.762-0.849,1.675
																							C167.76,449.484,167.728,450.324,167.53,450.349z"/>
																					</g>
																				</g>
																			</g>
																		</g>
																	</g>
																</g>
															</g>
														</g>
													</g>
												</g>
											</g>
										</g>
									</g>
								</g>
							</g>
						</g>
					</g>
					<g>
						<g>
							<g>
								<g>
									<g>
										<g>
											<g>
												<g>
													<g>
														<g>
															<g>
																<g>
																	<g>
																		<g>
																			<g>
																				<g>
																					<g>
																						<path style="fill:#FFFFFF;" d="M160.13,438.874c-0.078,0.184-0.999-0.064-2.121,0.046
																							c-1.124,0.086-1.988,0.489-2.097,0.322c-0.119-0.141,0.714-0.902,2.037-1.012
																							C159.271,438.109,160.222,438.715,160.13,438.874z"/>
																					</g>
																				</g>
																			</g>
																		</g>
																	</g>
																</g>
															</g>
														</g>
													</g>
												</g>
											</g>
										</g>
									</g>
								</g>
							</g>
						</g>
					</g>
				</g>
			</g>
			<g>
				<g>
					<g>
						<g>
							<g>
								<g>
									<g>
										<g>
											<g>
												<g>
													<g>
														<g>
															<g>
																<g>
																	<g>
																		<g>
																			<g>
																				<g>
																					<path style="fill:#263238;" d="M65.814,420.137L50.793,432.6c0,0,7.623,19.454,5.071,22.028L30.653,426.37
																						l22.609-20.379L65.814,420.137z"/>
																				</g>
																			</g>
																		</g>
																	</g>
																</g>
															</g>
														</g>
													</g>
												</g>
											</g>
										</g>
									</g>
								</g>
							</g>
						</g>
					</g>
					<g>
						<g>
							<g>
								<g>
									<g>
										<g>
											<g>
												<g>
													<g>
														<g>
															<g>
																<g>
																	<g>
																		<g>
																			<g>
																				<g>
																					<path style="fill:#455A64;" d="M30.653,426.37l2.359-1.965l23.289,27.828c0,0,0.575,1.746-0.438,2.395
																						L30.653,426.37z"/>
																				</g>
																			</g>
																		</g>
																	</g>
																</g>
															</g>
														</g>
													</g>
												</g>
											</g>
										</g>
									</g>
								</g>
							</g>
						</g>
					</g>
					<g>
						<g>
							<g>
								<g>
									<g>
										<g>
											<g>
												<g>
													<g>
														<g>
															<g>
																<g>
																	<g>
																		<g>
																			<g>
																				<g>
																					<g>
																						<path style="fill:#FFFFFF;" d="M51.345,432.93c-0.142,0.119-0.82-0.516-1.87-0.799
																							c-1.042-0.31-1.952-0.127-2.011-0.303c-0.087-0.151,0.922-0.681,2.186-0.316
																							C50.919,431.865,51.498,432.846,51.345,432.93z"/>
																					</g>
																				</g>
																			</g>
																		</g>
																	</g>
																</g>
															</g>
														</g>
													</g>
												</g>
											</g>
										</g>
									</g>
								</g>
							</g>
						</g>
					</g>
					<g>
						<g>
							<g>
								<g>
									<g>
										<g>
											<g>
												<g>
													<g>
														<g>
															<g>
																<g>
																	<g>
																		<g>
																			<g>
																				<g>
																					<g>
																						<path style="fill:#FFFFFF;" d="M52.764,436.987c-0.106,0.151-0.873-0.237-1.875-0.185
																							c-1.003,0.023-1.74,0.467-1.856,0.324c-0.138-0.11,0.585-0.926,1.832-0.967
																							C52.111,436.107,52.892,436.867,52.764,436.987z"/>
																					</g>
																				</g>
																			</g>
																		</g>
																	</g>
																</g>
															</g>
														</g>
													</g>
												</g>
											</g>
										</g>
									</g>
								</g>
							</g>
						</g>
					</g>
					<g>
						<g>
							<g>
								<g>
									<g>
										<g>
											<g>
												<g>
													<g>
														<g>
															<g>
																<g>
																	<g>
																		<g>
																			<g>
																				<g>
																					<g>
																						<path style="fill:#FFFFFF;" d="M50.718,441.835c-0.141-0.099,0.377-0.906,1.448-1.226
																							c1.07-0.328,1.948,0.057,1.885,0.218c-0.044,0.179-0.823,0.122-1.699,0.398
																							C51.471,441.48,50.854,441.961,50.718,441.835z"/>
																					</g>
																				</g>
																			</g>
																		</g>
																	</g>
																</g>
															</g>
														</g>
													</g>
												</g>
											</g>
										</g>
									</g>
								</g>
							</g>
						</g>
					</g>
					<g>
						<g>
							<g>
								<g>
									<g>
										<g>
											<g>
												<g>
													<g>
														<g>
															<g>
																<g>
																	<g>
																		<g>
																			<g>
																				<g>
																					<g>
																						<path style="fill:#FFFFFF;" d="M54.453,429.709c-0.177,0.055-0.552-0.748-1.301-1.481
																							c-0.734-0.748-1.537-1.121-1.483-1.299c0.029-0.169,1.068-0.032,1.938,0.844
																							C54.484,428.641,54.622,429.68,54.453,429.709z"/>
																					</g>
																				</g>
																			</g>
																		</g>
																	</g>
																</g>
															</g>
														</g>
													</g>
												</g>
											</g>
										</g>
									</g>
								</g>
							</g>
						</g>
					</g>
				</g>
			</g>
			<g>
				<path style="fill:#263238;" d="M148.978,307.251c0.859,0.286,41.882,44.292,40.165,54.598
					c-1.718,10.306-25.764,79.297-25.764,79.297l-25.802-2.954l16.641-64.034l4.58-5.153l-31.49-28.914L148.978,307.251z"/>
			</g>
			<g>
				<path style="fill:#263238;" d="M125.473,314.042c2.458,1.912-6.281,56.803-10.104,63.084
					c-3.823,6.281-56.616,54.348-56.616,54.348l-17.665-18.027c0,0,49.109-49.156,49.542-49.703
					c0.433-0.546-5.028-45.879-5.028-45.879L125.473,314.042z"/>
			</g>
			<g style="opacity:0.3;">
				<path d="M115.368,377.125c0,0-18.765-5.357-24.717-13.806c0,0-0.894-9.698-0.93-10.09c-0.035-0.391,28.306,14.869,28.398,15.122
					C118.265,368.755,115.593,377.331,115.368,377.125z"/>
			</g>
			<g>
				<g>
					<path style="fill:#455A64;" d="M161.698,368.99c-0.016-0.031,0.329-0.254,0.969-0.633c0.738-0.422,1.654-0.945,2.74-1.567
						c1.202-0.665,2.588-1.433,4.113-2.277c0.782-0.427,1.598-0.873,2.445-1.336c0.821-0.458,1.689-1.008,2.028-1.88l0.345,0.333
						c-0.213,0.091-0.441,0.189-0.671,0.288c-3.937,1.691-7.449,3.338-9.982,4.553c-1.191,0.571-2.195,1.053-3,1.439
						c-0.711,0.336-1.11,0.51-1.127,0.478c-0.017-0.031,0.351-0.265,1.034-0.657c0.683-0.392,1.682-0.938,2.929-1.589
						c2.495-1.302,5.993-3.006,9.941-4.702c0.23-0.099,0.46-0.197,0.673-0.288l0.578-0.248l-0.233,0.58
						c-0.441,1.096-1.435,1.671-2.27,2.136c-0.853,0.453-1.677,0.891-2.465,1.309c-1.545,0.808-2.95,1.542-4.167,2.178
						c-1.117,0.564-2.058,1.04-2.817,1.423C162.091,368.856,161.715,369.021,161.698,368.99z"/>
				</g>
			</g>
			<g style="opacity:0.3;">
				<path d="M153.913,312.334l-8.619,44.272l-10.022-9.202c4.347-15.829,8.806-30.413,13.706-40.153L153.913,312.334z"/>
			</g>
		</g>
		<g>
			<g>
				<path style="fill:#263238;" d="M182.411,268.928c-0.038-0.061,1.083-0.849,2.927-2.074c1.847-1.221,4.406-2.894,7.29-4.66
					c1.443-0.881,2.842-1.692,4.158-2.354c1.314-0.664,2.529-1.184,3.548-1.618c2.04-0.861,3.314-1.363,3.344-1.297
					c0.03,0.065-1.193,0.687-3.193,1.633c-0.998,0.476-2.192,1.029-3.479,1.709c-1.288,0.677-2.667,1.494-4.107,2.372
					c-2.814,1.73-5.359,3.294-7.364,4.526C183.64,268.311,182.449,268.989,182.411,268.928z"/>
			</g>
		</g>
		<g>
			<g>
				<g>
					<g>
						<g>
							<g>
								<g>
									<g>
										<g>
											<path style="fill:#263238;" d="M193.116,213.25c1.297-3.842,2.624-7.699,4.563-11.261
												c1.939-3.562,4.535-6.847,7.938-9.053c0.516-0.335,4.289-2.346,4.743-1.932c0.325,0.296-2.731,2.517-2.78,2.954
												c-0.471,4.167-2.613,8.006-5.378,11.158C199.436,208.268,196.494,210.765,193.116,213.25"/>
										</g>
									</g>
								</g>
							</g>
						</g>
					</g>
					<g>
						<g>
							<g>
								<g>
									<g>
										<g>
											<path style="fill:#FFBF9D;" d="M225.724,194.696l0.724,0.602c7.288,6.056,8.708,16.692,3.257,24.443
												c-5.071,7.211-10.766,15.114-13.824,18.702c-6.33,7.429-14.807,2.358-14.807,2.358c-0.018-0.013-4.609,5.873-4.609,5.873
												l-8.457,0.79l-6.649-18.963l20.675-27.901C207.837,192.247,217.536,188.663,225.724,194.696z"/>
										</g>
									</g>
								</g>
							</g>
						</g>
					</g>
					<g>
						<g>
							<g>
								<g>
									<g>
										<g>
											<path style="fill:#FF9A6C;" d="M201.074,240.801c0,0-4.962-3.654-7.372-11.011c0,0-2.338,7.597,5.713,13.145
												L201.074,240.801z"/>
										</g>
									</g>
								</g>
							</g>
						</g>
					</g>
					<g>
						<g>
							<g>
								<g>
									<g>
										<g>
											<path style="fill:#263238;" d="M222.593,225.16c-0.45,0.583-1.315,0.682-1.932,0.223
												c-0.616-0.458-0.752-1.302-0.302-1.885c0.45-0.583,1.316-0.683,1.932-0.224
												C222.907,223.733,223.043,224.578,222.593,225.16z"/>
										</g>
									</g>
								</g>
							</g>
						</g>
					</g>
					<g>
						<g>
							<g>
								<g>
									<g>
										<g>
											<path style="fill:#263238;" d="M225.355,222.336c-0.249,0.029-0.562-1.246-1.718-2.202
												c-1.141-0.971-2.48-1.081-2.488-1.326c-0.009-0.113,0.336-0.254,0.927-0.216c0.585,0.034,1.42,0.289,2.136,0.889
												c0.715,0.601,1.1,1.368,1.222,1.927C225.562,221.976,225.472,222.328,225.355,222.336z"/>
										</g>
									</g>
								</g>
							</g>
						</g>
					</g>
					<g>
						<g>
							<g>
								<g>
									<g>
										<g>
											<path style="fill:#263238;" d="M212.143,217.833c-0.249,0.029-0.563-1.247-1.718-2.202
												c-1.141-0.97-2.481-1.081-2.488-1.326c-0.009-0.113,0.334-0.254,0.927-0.215c0.585,0.034,1.42,0.288,2.136,0.888
												c0.715,0.601,1.1,1.368,1.223,1.927C212.349,217.472,212.26,217.825,212.143,217.833z"/>
										</g>
									</g>
								</g>
							</g>
						</g>
					</g>
					<g>
						<g>
							<g>
								<g>
									<g>
										<g>
											<path style="fill:#263238;" d="M210.598,224.902c0.049-0.07,0.869,0.402,2.154,1.219c0.32,0.214,0.647,0.388,0.864,0.228
												c0.246-0.155,0.387-0.575,0.529-1.036c0.315-0.943,0.646-1.931,0.993-2.967c1.444-4.199,2.75-7.552,2.919-7.492
												c0.169,0.06-0.865,3.511-2.309,7.709c-0.363,1.029-0.708,2.011-1.041,2.95c-0.167,0.428-0.291,0.966-0.808,1.283
												c-0.262,0.154-0.611,0.134-0.842,0.028c-0.237-0.099-0.405-0.234-0.558-0.346
												C211.278,225.569,210.548,224.972,210.598,224.902z"/>
										</g>
									</g>
								</g>
							</g>
						</g>
					</g>
					<g>
						<g>
							<g>
								<g>
									<g>
										<g>
											<path style="fill:#263238;" d="M214.213,216.212c-0.391,0.188-1.325-0.999-2.729-2.079
												c-1.383-1.109-2.757-1.735-2.667-2.159c0.048-0.198,0.493-0.299,1.18-0.179c0.682,0.117,1.592,0.485,2.429,1.14
												c0.835,0.657,1.408,1.454,1.683,2.089C214.386,215.663,214.394,216.119,214.213,216.212z"/>
										</g>
									</g>
								</g>
							</g>
						</g>
					</g>
					<g>
						<g>
							<g>
								<g>
									<g>
										<g>
											<path style="fill:#263238;" d="M226.864,221.191c-0.457,0.07-1.185-0.972-2.318-1.907
												c-1.105-0.968-2.255-1.523-2.254-1.981c0.011-0.213,0.377-0.356,1.003-0.266c0.618,0.086,1.48,0.443,2.25,1.097
												c0.769,0.654,1.255,1.443,1.434,2.035C227.163,220.768,227.075,221.148,226.864,221.191z"/>
										</g>
									</g>
								</g>
							</g>
						</g>
					</g>
					<g>
						<g>
							<g>
								<g>
									<g>
										<g>
											<path style="fill:#FFBF9D;" d="M198.027,206.666c-0.082-0.162-3.89-5.811-7.99-0.543c-4.1,5.268,2.034,8.298,2.161,8.154
												C192.325,214.133,198.027,206.666,198.027,206.666z"/>
										</g>
									</g>
								</g>
							</g>
						</g>
					</g>
					<g>
						<g>
							<g>
								<g>
									<g>
										<g>
											<path style="fill:#FF9A6C;" d="M192.523,211.376c-0.01-0.035-0.142-0.007-0.352-0.057
												c-0.205-0.048-0.502-0.203-0.697-0.52c-0.397-0.637-0.178-1.886,0.535-2.855c0.36-0.49,0.816-0.868,1.279-1.114
												c0.461-0.26,0.92-0.335,1.239-0.167c0.329,0.153,0.397,0.475,0.346,0.673c-0.044,0.202-0.16,0.281-0.138,0.312
												c0.004,0.025,0.182-0.001,0.308-0.251c0.06-0.122,0.095-0.294,0.05-0.491c-0.046-0.201-0.191-0.398-0.403-0.529
												c-0.428-0.288-1.085-0.199-1.594,0.07c-0.534,0.254-1.057,0.671-1.461,1.221c-0.792,1.088-1.022,2.504-0.432,3.317
												c0.295,0.385,0.691,0.514,0.948,0.514C192.415,211.496,192.534,211.4,192.523,211.376z"/>
										</g>
									</g>
								</g>
							</g>
						</g>
					</g>
					<g>
						<g>
							<g>
								<g>
									<g>
										<g>
											<path style="fill:#263238;" d="M232.989,208.332c1.22,0.182,0.769-4.566-0.609-7.135
												c-2.083-3.883-6.27-8.495-9.846-9.908c-4.306-1.701-8.592-2.188-12.831-0.325c-4.239,1.863-7.775,5.105-10.483,8.861
												c-0.826,1.146-1.604,2.405-1.729,3.811c-0.156,1.739,0.702,3.564-0.597,5.133c-0.475,0.574-0.762,1.3-0.687,2.04
												c0.181,1.774,2.11,1.712,3.399,1.156c2.754-1.186,4.779-3.567,6.7-5.869c1.366-1.636,2.755-3.311,3.52-5.3
												c0.416-1.082,0.638-2.236,1.114-3.294c0.475-1.058,1.281-2.055,2.399-2.361c0.182-0.05,0.447-0.085,0.764-0.107
												c2.508-0.169,4.912,1.045,6.286,3.15c2.179,3.34,6.073,8.816,8.18,8.821c3.031,0.006,4.216-0.594,4.216-0.594
												L232.989,208.332z"/>
										</g>
									</g>
								</g>
							</g>
						</g>
					</g>
				</g>
				<g style="opacity:0.3;">
					<path d="M227.261,223.2c0,0-9.015-4.632-15.632-10.057c-6.617-5.425-13.484-11.983-13.484-11.983l2.544-3.634l28.632,22.757
						L227.261,223.2z"/>
				</g>
				<g>
					<g>
						<path style="fill:#263238;" d="M204.326,224.687c0.014-0.064,0.296-0.081,0.7,0.105c0.402,0.18,0.884,0.588,1.229,1.156
							c0.66,1.156,0.727,2.195,0.619,2.225c-0.161,0.057-0.475-0.936-1.063-1.953C205.216,225.182,204.296,224.813,204.326,224.687z
							"/>
					</g>
				</g>
			</g>
			<g>
				<g>
					<g>
						<g>
							<path style="fill:#FF725E;" d="M236.098,215.61c-0.092,0.417,6.602,10.136,4.857,11.039
								c-1.744,0.902-15.789-9.346-23.045-13.494c-7.256-4.148-14.5-10.71-19.837-14.231s-5.875-6.002-5.246-6.196
								c1.83-0.565,7.103,2.293,7.103,2.293s8.416-11.381,17.283-8.465c8.866,2.916,16.116,3.477,18.515,5.123
								C238.125,193.326,238.388,205.207,236.098,215.61z"/>
						</g>
						<g>
							<path style="fill:#263238;" d="M237.08,210.092c0,0-11.916-3.881-18.531-7.617c-6.62-3.738-15.688-10.466-15.73-10.502
								c-0.003-0.002-0.159-0.018-0.161-0.016c-1.067,1.066-2.038,2.162-2.906,3.289c0,0,20.28,14.966,27.384,17.886
								c7.104,2.92,8.961,2.477,8.961,2.477S237.47,210.248,237.08,210.092z"/>
						</g>
					</g>
				</g>
				<g style="opacity:0.3;">
					<path d="M224.059,191.257c-0.099-0.185-4.279,3.11-14.912-0.279c-5.34-1.702-1.33,2.832,2.85,3.248
						C216.177,194.642,227.059,196.857,224.059,191.257z"/>
				</g>
				<g style="opacity:0.2;">
					<path style="fill:#FFFFFF;" d="M198.792,195.233c0,0,12.713,11.07,20.97,14.588c0,0,0.672,1.744-3.882,0.28
						c-4.554-1.463-19.137-13.507-20.743-15.065c-1.606-1.557-2.658-2.329-0.764-1.908
						C196.267,193.549,198.792,195.233,198.792,195.233z"/>
				</g>
			</g>
			<g style="opacity:0.2;">
				<path style="fill:#FFFFFF;" d="M226.566,189.773c0,0-9.464-2.84-12.231-3.097c-2.767-0.257-8.236,1.724-7.149,2.529
					s7.183,1.404,11.265,1.744C222.534,191.289,226.566,189.773,226.566,189.773z"/>
			</g>
			<g>
				<g>
					<path style="fill:#263238;" d="M207.499,193.015c0.06-0.162,3.338,1.417,7.723,1.832c4.382,0.461,7.907-0.439,7.934-0.268
						c0.015,0.059-0.84,0.361-2.282,0.608c-1.439,0.25-3.474,0.397-5.703,0.178c-2.228-0.226-4.193-0.773-5.554-1.302
						C208.251,193.535,207.472,193.069,207.499,193.015z"/>
				</g>
			</g>
		</g>
		<g>
			<g style="opacity:0.3;">
				<path d="M191.09,205.145c0.338,0.332,15.523,30.991,14.51,31.719c-1.012,0.728-7.622,3.935-7.622,3.935s3.813,2.797,3.732,3.04
					c-0.081,0.243-1.886,1.286-1.886,1.286l-6.175-5.593l-3.691-33.14C190.26,205.818,190.6,205.325,191.09,205.145z"/>
			</g>
			<g>
				<g>
					<path style="fill:#FF725E;" d="M193.65,239.532l8.677-4.422c0,0-12.788-29.965-12.955-29.965c0,0-5.125,12.432-6.456,14.728
						c-0.229,0.396,0,0,0,0s-3.38-3.557-5.7-3.739c-1.312-0.103-2.841,1.289-2.841,1.289s-13.621-3.195-15.79-2.945l-35.755,45.454
						c0,0-6.842,4.912-27.181,30.481c-18.6,23.382-30.614,42.084-29.807,42.171c0.808,0.087,17.984,7.963,17.984,7.963
						s-2.788,4.655,0.597,8.728c2.96,3.562,42.098,25.471,45.537,17.462c0.593-1.38,13.195-51.932,20.862-63.598
						c7.573-11.524,29.846-40.912,34.413-45.638c5.203-5.384,14.587-12.375,14.587-12.375L193.65,239.532z"/>
				</g>
				<g>
					<g>
						<path style="fill:#263238;" d="M193.65,239.532c0.331,0.295,2.026,1.806,6.219,5.544l0.059,0.053l-0.064,0.049
							c-2.332,1.777-5.354,4.136-8.888,7.16c-1.76,1.519-3.651,3.204-5.555,5.149c-1.852,1.987-3.669,4.286-5.605,6.715
							c-3.866,4.87-8.086,10.411-12.663,16.517c-4.559,6.118-9.502,12.789-14.538,20.109c-2.638,3.593-4.498,7.783-6.204,12.194
							c-1.673,4.418-3.268,9.017-4.772,13.78c-3.033,9.519-5.898,19.63-8.761,30.192c-0.713,2.642-1.434,5.311-2.161,8.005
							c-0.196,0.665-0.329,1.357-0.642,2.05c-0.353,0.702-1.057,1.15-1.754,1.379c-1.429,0.45-2.9,0.313-4.318,0.134
							c-2.844-0.433-5.596-1.321-8.32-2.303c-2.721-0.999-5.41-2.141-8.083-3.365c-5.342-2.46-10.639-5.224-15.855-8.293
							c-1.303-0.77-2.598-1.563-3.876-2.397c-0.639-0.417-1.274-0.844-1.897-1.294c-0.616-0.465-1.25-0.893-1.788-1.527
							c-0.987-1.225-1.643-2.773-1.678-4.373c-0.06-1.598,0.336-3.172,1.101-4.593l0.114,0.369
							c-3.144-1.427-6.387-2.899-9.689-4.398c-1.657-0.736-3.328-1.478-5.009-2.224c-0.842-0.365-1.69-0.735-2.54-1.074
							c-0.213-0.085-0.434-0.172-0.6-0.221c-0.031-0.009-0.026-0.012-0.086-0.027c-0.281-0.098-0.234-0.276-0.249-0.333
							c0.007-0.116,0.032-0.176,0.051-0.245c0.044-0.125,0.092-0.238,0.142-0.347c0.202-0.437,0.431-0.842,0.661-1.25
							c2.041-3.495,4.289-6.808,6.527-10.099c2.249-3.283,4.534-6.508,6.836-9.683c4.605-6.35,9.279-12.505,13.975-18.464
							c4.711-5.947,9.407-11.728,14.158-17.254c2.383-2.756,4.767-5.459,7.2-8.062c2.457-2.585,4.861-5.139,7.595-7.363
							l-0.049,0.046c13.092-16.62,25.117-31.885,35.786-45.429l0.059-0.074l0.076-0.001c1.48-0.021,2.817,0.271,4.181,0.49
							c1.353,0.241,2.684,0.504,3.998,0.777c2.628,0.544,5.184,1.117,7.676,1.697l-0.166,0.043c0.714-0.602,1.489-1.11,2.406-1.299
							c0.961-0.141,1.806,0.274,2.545,0.671c1.476,0.865,2.705,1.953,3.837,3.097l0.09,0.091l-0.066,0.114l-0.07,0.12l-0.017,0.03
							l-0.009,0.015l-0.004,0.007c0.266,0.155-0.365-0.206-0.299-0.171l0.002-0.004l0.035-0.06l0.134-0.239l0.255-0.48l0.476-0.98
							c0.302-0.659,0.602-1.313,0.898-1.96c0.572-1.306,1.133-2.589,1.684-3.847c1.069-2.531,2.097-4.965,3.084-7.303l0.053-0.126
							l0.084,0.035c0.052,0.021,0.128,0.074,0.166,0.137c0.036,0.059,0.032,0.062,0.05,0.095l0.076,0.157l0.144,0.312l0.279,0.621
							c0.182,0.413,0.363,0.823,0.542,1.23c0.354,0.815,0.703,1.617,1.046,2.405c0.68,1.58,1.338,3.107,1.973,4.581
							c1.262,2.951,2.432,5.689,3.507,8.204c2.135,5.031,3.891,9.17,5.238,12.344l0.026,0.062l-0.059,0.03
							C196.485,238.113,194.081,239.316,193.65,239.532c0.427-0.222,2.814-1.46,8.645-4.485l-0.033,0.091
							c-1.366-3.166-3.147-7.294-5.313-12.312c-1.086-2.51-2.268-5.243-3.542-8.188c-0.64-1.472-1.304-2.997-1.99-4.573
							c-0.346-0.787-0.697-1.588-1.054-2.401c-0.18-0.406-0.362-0.814-0.545-1.226l-0.28-0.617l-0.143-0.308l-0.073-0.151
							c-0.008-0.017-0.034-0.068-0.027-0.058c0.005,0.006,0.017,0.012,0.033,0.011c0.008,0,0.016-0.003,0.024-0.006l0.011-0.007
							c0.001,0.03,0.01-0.021,0.01-0.153l0.137,0.053c-0.98,2.342-2.002,4.78-3.064,7.316c-0.548,1.261-1.106,2.546-1.675,3.856
							c-0.296,0.65-0.595,1.307-0.896,1.969l-0.478,0.99l-0.261,0.494l-0.135,0.244l-0.035,0.06l-0.002,0.004
							c0.064,0.04-0.563-0.328-0.297-0.175l0.004-0.008l0.009-0.015l0.017-0.03l0.069-0.12l0.024,0.205
							c-1.108-1.115-2.338-2.195-3.762-3.023c-0.708-0.386-1.52-0.75-2.306-0.625c-0.796,0.161-1.563,0.651-2.222,1.215
							l-0.075,0.064l-0.091-0.021c-2.489-0.574-5.046-1.141-7.669-1.678c-1.312-0.27-2.641-0.53-3.988-0.767
							c-1.337-0.218-2.739-0.499-4.067-0.479l0.134-0.075c-10.65,13.558-22.654,28.84-35.724,45.478l-0.015,0.019l-0.034,0.027
							c-2.648,2.159-5.082,4.737-7.518,7.308c-2.424,2.597-4.803,5.298-7.18,8.052c-4.74,5.522-9.429,11.302-14.134,17.246
							c-4.689,5.956-9.357,12.107-13.956,18.452c-2.299,3.173-4.581,6.395-6.826,9.673c-2.232,3.284-4.482,6.602-6.503,10.063
							c-0.226,0.4-0.453,0.804-0.64,1.209c-0.047,0.101-0.089,0.201-0.122,0.295c-0.022,0.041-0.005,0.093-0.045,0.092
							c-0.147-0.028-0.209,0.041-0.197,0.017c-0.021,0.187,0.026-0.254,0.024-0.208l0.006,0.002l0.012,0.003l0.025,0.007
							l0.049,0.014c0.28,0.074,0.487,0.165,0.705,0.25c0.868,0.346,1.712,0.715,2.558,1.082c1.683,0.747,3.356,1.491,5.014,2.227
							c3.303,1.5,6.547,2.973,9.692,4.401l0.252,0.114l-0.137,0.255c-0.7,1.299-1.092,2.827-1.029,4.306
							c0.033,1.492,0.638,2.916,1.561,4.068c0.451,0.538,1.093,0.988,1.691,1.436c0.613,0.444,1.242,0.867,1.876,1.281
							c1.269,0.828,2.559,1.618,3.856,2.386c5.196,3.061,10.482,5.822,15.804,8.277c2.664,1.221,5.341,2.361,8.044,3.355
							c2.704,0.978,5.439,1.859,8.219,2.284c1.378,0.18,2.814,0.297,4.092-0.111c0.625-0.208,1.195-0.577,1.48-1.147
							c0.262-0.581,0.408-1.277,0.603-1.947c0.729-2.692,1.452-5.36,2.168-8.001c2.874-10.563,5.753-20.676,8.802-30.201
							c1.513-4.766,3.117-9.37,4.802-13.797c0.447-1.098,0.89-2.187,1.331-3.268c0.443-1.08,0.969-2.118,1.444-3.166l0.365-0.781
							l0.427-0.749c0.284-0.498,0.567-0.995,0.849-1.489c0.579-0.977,1.242-1.881,1.853-2.812
							c5.058-7.32,10.016-13.98,14.592-20.089c4.595-6.096,8.833-11.625,12.719-16.485c1.949-2.425,3.77-4.714,5.648-6.712
							c1.922-1.947,3.824-3.626,5.594-5.138c3.555-3.01,6.593-5.349,8.944-7.108l-0.005,0.101
							C195.647,241.369,193.976,239.832,193.65,239.532z"/>
					</g>
				</g>
			</g>
			<g>
				<g>
					<path style="fill:#263238;" d="M100.075,306.089c0.13,0.061-3.545,8.129-8.207,18.017c-4.664,9.892-8.549,17.858-8.679,17.797
						c-0.13-0.061,3.544-8.127,8.208-18.019C96.059,313.996,99.945,306.027,100.075,306.089z"/>
				</g>
			</g>
			<g>
				<g>
					<path style="fill:#FF725E;" d="M186.115,229.143c-9.735-2.354-9.79-1.835-19.525-4.189"/>
				</g>
				<g>
					<g>
						<path style="fill:#263238;" d="M166.589,224.954c0.018-0.074,1.118,0.134,2.888,0.49c1.77,0.361,4.211,0.851,6.922,1.348
							c2.714,0.498,5.158,1.048,6.909,1.501c1.753,0.449,2.822,0.783,2.806,0.849c-0.018,0.074-1.118-0.134-2.888-0.49
							c-1.771-0.361-4.211-0.851-6.923-1.348c-2.713-0.497-5.157-1.048-6.908-1.501C167.643,225.355,166.573,225.02,166.589,224.954
							z"/>
					</g>
				</g>
			</g>
			<g>
				<g>
					<path style="fill:#FF725E;" d="M185.039,225.021c-9.735-2.354-9.79-1.835-19.525-4.189"/>
				</g>
				<g>
					<g>
						<path style="fill:#263238;" d="M165.514,220.832c0.018-0.074,1.118,0.134,2.888,0.49c1.77,0.361,4.211,0.851,6.922,1.348
							c2.714,0.498,5.158,1.048,6.909,1.501c1.753,0.449,2.822,0.783,2.806,0.849c-0.018,0.074-1.118-0.134-2.888-0.49
							c-1.771-0.361-4.211-0.851-6.923-1.348c-2.714-0.497-5.157-1.048-6.908-1.501
							C166.567,221.233,165.498,220.899,165.514,220.832z"/>
					</g>
				</g>
			</g>
			<g style="opacity:0.3;">
				<path d="M134.819,283.233c0,0-20.344-0.113-30.426,9.139C104.393,292.372,124.784,295.111,134.819,283.233z"/>
			</g>
			<g style="opacity:0.3;">
				<path d="M158.079,241.773l-20.177,16.014c0,0,1.107,4.351-1.844,6.065c-2.951,1.714-5.427,18.708-5.427,18.708
					s-12.252-19.499-11.612-19.895c0.64-0.396,13.033-16.216,13.033-16.216L158.079,241.773z"/>
			</g>
			<g>
				<g>
					<path style="fill:#263238;" d="M101.979,292.05c0.006-0.035,0.53,0.001,1.471,0.096c0.47,0.054,1.045,0.112,1.716,0.145
						c0.67,0.038,1.43,0.117,2.275,0.121c3.364,0.108,8.068-0.035,13.061-1.277c2.487-0.635,4.795-1.465,6.792-2.442
						c1.962-1.03,3.685-2.074,4.945-3.188c2.587-2.155,3.714-3.966,3.82-3.882c0.03,0.02-0.264,0.454-0.823,1.225
						c-0.146,0.199-0.303,0.412-0.47,0.64c-0.201,0.217-0.415,0.448-0.641,0.692c-0.457,0.501-0.98,1.071-1.648,1.605
						c-1.251,1.169-2.984,2.266-4.968,3.337c-2.018,1.018-4.36,1.875-6.881,2.518c-5.062,1.259-9.82,1.342-13.204,1.139
						c-0.85-0.028-1.613-0.133-2.284-0.199c-0.672-0.062-1.247-0.149-1.714-0.234C102.487,292.189,101.974,292.085,101.979,292.05z"
						/>
				</g>
			</g>
			<g>
				<g>
					<path style="fill:#263238;" d="M190.905,240.798c-0.072,0.021-0.457-1.092-1.078-2.887c-0.62-1.796-1.49-4.27-2.525-6.974
						c-1.037-2.705-2.041-5.128-2.779-6.879c-0.737-1.751-1.193-2.836-1.125-2.868c0.062-0.03,0.636,1,1.461,2.717
						c0.826,1.717,1.888,4.127,2.929,6.843c1.039,2.716,1.857,5.22,2.389,7.049C190.71,239.628,190.97,240.779,190.905,240.798z"/>
				</g>
			</g>
			<g>
				<g>
					<path style="fill:#263238;" d="M167.859,295.282c-0.012-0.014,0.107-0.14,0.343-0.368c0.284-0.265,0.63-0.588,1.048-0.979
						c0.984-0.886,2.308-2.078,3.917-3.526c3.322-2.96,7.934-7.02,13.048-11.48c5.116-4.462,9.767-8.478,13.15-11.367
						c1.653-1.397,3.013-2.546,4.025-3.4c0.444-0.361,0.811-0.66,1.112-0.905c0.258-0.203,0.399-0.302,0.411-0.289
						c0.012,0.013-0.106,0.139-0.341,0.367c-0.283,0.265-0.629,0.587-1.047,0.978c-0.984,0.886-2.307,2.077-3.916,3.525
						c-3.322,2.959-7.936,7.022-13.054,11.485c-5.116,4.462-9.768,8.479-13.151,11.367c-1.653,1.396-3.013,2.545-4.024,3.4
						c-0.444,0.361-0.81,0.659-1.111,0.904C168.011,295.196,167.87,295.296,167.859,295.282z"/>
				</g>
			</g>
			<g style="opacity:0.3;">
				<path d="M98.642,309.13c-0.063,0.134-13.113,20.075-19.852,29.214l5.039,2.202L98.642,309.13z"/>
			</g>
			<g>
				<g>
					<path style="fill:#263238;" d="M101.548,294.503c0.007-0.035,0.535,0.019,1.481,0.146c0.472,0.07,1.05,0.148,1.726,0.195
						c0.675,0.053,1.44,0.153,2.292,0.166c1.7,0.098,3.73,0.068,5.971-0.106c2.238-0.209,4.686-0.582,7.206-1.205
						c2.514-0.648,4.846-1.483,6.915-2.362c2.055-0.912,3.856-1.849,5.306-2.743c0.744-0.416,1.37-0.867,1.939-1.234
						c0.573-0.363,1.045-0.705,1.427-0.991c0.772-0.561,1.211-0.859,1.234-0.831c0.023,0.028-0.373,0.379-1.111,0.992
						c-0.365,0.312-0.822,0.681-1.383,1.069c-0.557,0.393-1.173,0.869-1.911,1.309c-1.437,0.941-3.239,1.923-5.307,2.869
						c-2.082,0.913-4.438,1.772-6.981,2.428c-2.549,0.631-5.03,0.994-7.295,1.178c-2.269,0.149-4.32,0.141-6.032-0.005
						c-0.859-0.036-1.627-0.163-2.304-0.244c-0.678-0.075-1.255-0.182-1.725-0.284C102.056,294.66,101.54,294.539,101.548,294.503z"
						/>
				</g>
			</g>
			<g>
				<g>
					<path style="fill:#FF725E;" d="M157.73,214.477c-7.003-0.094-41.457,24.732-45.744,29.48c-4.287,4.748,0.25,48.594,0.25,48.594
						c10.052-0.247,17.334-5.408,17.334-5.408c-0.103-0.697,1.462-25.374,1.462-25.374s3.542,0.65,4.168-0.78
						c0.418-0.956-1.201-4.255-1.201-4.255l17.38-11.247c2.097-1.224,7.337-4.1,8.254-6.348
						C162.709,231.602,168.441,214.621,157.73,214.477z"/>
				</g>
				<g>
					<g>
						<path style="fill:#263238;" d="M130.732,258.198c-0.012,0.033-0.353-0.048-0.958-0.231c-0.605-0.185-1.477-0.465-2.531-0.887
							c-1.05-0.427-2.295-0.994-3.539-1.869c-0.602-0.455-1.279-0.897-1.765-1.669c-0.233-0.381-0.363-0.882-0.268-1.365
							c0.07-0.486,0.457-0.978,0.979-1.111c0.521-0.137,1.003,0.007,1.411,0.171c0.416,0.171,0.774,0.406,1.12,0.613
							c0.695,0.427,1.354,0.857,1.972,1.282c1.236,0.848,2.305,1.674,3.177,2.397c0.854,0.733,1.591,1.303,1.936,1.884
							c0.353,0.585,0.207,0.999,0.186,0.978c-0.048,0.004,0.014-0.375-0.355-0.866c-0.352-0.489-1.113-1.013-1.996-1.708
							c-0.895-0.681-1.977-1.469-3.216-2.287c-0.619-0.409-1.277-0.827-1.969-1.244c-0.351-0.208-0.69-0.425-1.052-0.57
							c-0.358-0.147-0.749-0.239-1.072-0.148c-0.684,0.169-0.8,1.136-0.411,1.717c0.374,0.623,1.031,1.095,1.604,1.537
							c1.184,0.866,2.386,1.456,3.404,1.92C129.441,257.645,130.763,258.116,130.732,258.198z"/>
					</g>
				</g>
				<g>
					<g>
						<path style="fill:#263238;" d="M133.999,256.734c0.012-0.006,0.116,0.172,0.29,0.529c0.172,0.358,0.421,0.893,0.685,1.617
							c0.129,0.363,0.263,0.773,0.349,1.246c0.039,0.237,0.074,0.492,0.011,0.773c-0.068,0.283-0.27,0.521-0.517,0.683
							c-0.502,0.329-1.128,0.425-1.768,0.457c-0.647,0.03-1.325-0.014-2.042-0.126l0.173-0.135c-0.172,3.04-0.384,6.769-0.626,11.04
							c-0.226,4.262-0.56,9.161-0.74,14.288l-0.006,0.175l-0.095,0.062c-4.319,2.812-9.712,4.809-15.542,5.358
							c-0.66,0.037-1.318,0.075-1.928,0.109l-0.241,0.014l-0.024-0.247c-1.326-13.557-2.047-25.789-2.012-34.634
							c0.016-4.421,0.25-7.996,0.685-10.431c0.244-1.21,0.477-2.15,0.79-2.731c0.116-0.307,0.288-0.497,0.385-0.633
							c0.101-0.133,0.155-0.198,0.161-0.192c0.036,0.026-0.215,0.273-0.452,0.867c-0.276,0.58-0.476,1.518-0.688,2.721
							c-0.371,2.425-0.55,5.988-0.519,10.398c0.059,8.822,0.838,21.042,2.168,34.581l-0.265-0.233
							c0.6-0.034,1.246-0.071,1.895-0.108c5.724-0.533,11.079-2.512,15.302-5.241l-0.101,0.237c0.062-2.708,0.252-5.154,0.385-7.571
							c0.151-2.394,0.294-4.672,0.429-6.815c0.288-4.269,0.54-7.996,0.745-11.034l0.011-0.163l0.162,0.028
							c0.686,0.117,1.358,0.173,1.979,0.153c0.618-0.018,1.214-0.108,1.652-0.385c0.483-0.262,0.53-0.784,0.442-1.236
							c-0.07-0.454-0.19-0.864-0.306-1.226c-0.238-0.724-0.462-1.267-0.61-1.635C134.066,256.93,133.987,256.741,133.999,256.734z"
							/>
					</g>
				</g>
			</g>
			<g>
				<g>
					<path style="fill:#263238;" d="M157.73,214.477c0-0.027,0.407-0.064,1.145-0.007c0.724,0.073,1.842,0.288,2.926,1.124
						c0.534,0.422,1.013,1.005,1.399,1.701c0.376,0.703,0.624,1.518,0.79,2.385c0.314,1.741,0.244,3.687-0.032,5.675
						c-0.577,3.986-1.75,7.438-2.648,9.893c-0.457,1.228-0.863,2.207-1.161,2.875c-0.297,0.669-0.483,1.03-0.516,1.016
						c-0.035-0.014,0.089-0.4,0.327-1.091c0.273-0.796,0.607-1.772,1.002-2.923c0.805-2.474,1.913-5.922,2.479-9.842
						c0.271-1.954,0.35-3.85,0.075-5.52c-0.146-0.83-0.366-1.605-0.7-2.269c-0.344-0.656-0.769-1.207-1.249-1.615
						c-0.973-0.81-2.022-1.077-2.722-1.208C158.134,214.554,157.728,214.522,157.73,214.477z"/>
				</g>
			</g>
			<g>
				<g>
					<path style="fill:#263238;" d="M147.025,272.839c0.04-0.052,0.842,0.478,2.043,1.462c1.201,0.983,2.784,2.439,4.369,4.203
						c1.584,1.766,2.862,3.497,3.71,4.796c0.85,1.299,1.29,2.154,1.234,2.188c-0.066,0.041-0.616-0.741-1.536-1.977
						c-0.919-1.236-2.229-2.911-3.796-4.659c-1.569-1.745-3.094-3.227-4.224-4.274C147.696,273.531,146.977,272.9,147.025,272.839z"
						/>
				</g>
			</g>
			<g>
				<g>
					<path style="fill:#263238;" d="M145.115,281.585c0.014-0.067,0.799,0.031,2.044,0.309c1.244,0.277,2.945,0.75,4.775,1.418
						c1.829,0.67,3.434,1.407,4.564,1.998c1.13,0.591,1.792,1.022,1.761,1.082c-0.072,0.138-2.877-1.273-6.503-2.591
						C148.134,282.469,145.081,281.737,145.115,281.585z"/>
				</g>
			</g>
			<g style="opacity:0.2;">
				<path style="fill:#FFFFFF;" d="M184.671,220.126l4.709-12.556c0,0,6.892,18.136,6.142,18.86
					c-0.751,0.725-6.551,1.808-7.643,0.618C186.786,225.859,184.671,220.126,184.671,220.126z"/>
			</g>
			<g style="opacity:0.2;">
				<path style="fill:#FFFFFF;" d="M174.668,218.421c-1.131,0.152-11.35-3.334-10.306-2.189c1.044,1.145,4.001,2.67,6.349,3.343
					c2.348,0.672,12.003,1.971,11.046,0.887c-0.957-1.084-1.566-2.603-3.566-2.887C176.191,217.29,174.668,218.421,174.668,218.421z
					"/>
			</g>
			<g style="opacity:0.2;">
				<path style="fill:#FFFFFF;" d="M157.73,215.567c0.563,0.11,4.946,1.473,4.874,3.587c-0.073,2.114-21.38,11.589-25.559,11.443
					c-4.179-0.146-5.71-0.356-4.033-1.454C134.688,228.046,154.678,214.969,157.73,215.567z"/>
			</g>
		</g>
	</g>
	<g>
		<g>
			<path style="fill:none;stroke:#4E585D;stroke-width:0.05;stroke-miterlimit:10;" d="M254.641,204.175"/>
		</g>
	</g>
</g>
</svg>
